<?xml version="1.0" encoding="utf-8"?>
<svg version="1.1" xmlns:xlink="http://www.w3.org/1999/xlink" width="53px" height="48px" xmlns="http://www.w3.org/2000/svg">
  <defs>
    <filter x="1154px" y="-9px" width="53px" height="48px" filterUnits="userSpaceOnUse" id="filter12">
      <feOffset dx="0" dy="0" in="SourceAlpha" result="shadowOffsetInner" />
      <feGaussianBlur stdDeviation="10" in="shadowOffsetInner" result="shadowGaussian" />
      <feComposite in2="shadowGaussian" operator="atop" in="SourceAlpha" result="shadowComposite" />
      <feColorMatrix type="matrix" values="0 0 0 0 0.5647058823529412  0 0 0 0 0.6313725490196078  0 0 0 0 0.7254901960784313  0 0 0 0.8 0  " in="shadowComposite" />
    </filter>
    <g id="widget13">
      <path d="M 6.504072134962188 7.999999999999999  L 6.5 7.999999999999999  C 6.2393833624200115 7.999999999999999  5.978766724840024 7.902268760907504  5.779232111692846 7.702734147760325  L 0.8152995927865049 2.7388016288539845  C 0.4203025014543351 2.3397324025596276  0.4203025014543351 1.6963350785340312  0.8152995927865049 1.2972658522396743  C 1.2102966841186746 0.898196625945317  1.8577661431064583 0.9022687609075044  2.2568353694008154 1.2972658522396743  L 6.5 5.540430482838859  L 10.747236765561372 1.2972658522396743  C 11.14630599185573 0.898196625945317  11.789703315881326 0.898196625945317  12.188772542175682 1.2972658522396743  C 12.58784176847004 1.6963350785340312  12.58784176847004 2.3397324025596276  12.188772542175682 2.7388016288539845  L 7.2248400232693415 7.702734147760325  C 7.025305410122164 7.9022687609075035  6.764688772542176 7.999999999999999  6.504072134962188 7.999999999999999  Z " fill-rule="nonzero" fill="#ffffff" stroke="none" transform="matrix(1 0 0 1 1174 11 )" />
    </g>
  </defs>
  <g transform="matrix(1 0 0 1 -1154 9 )">
    <use xlink:href="#widget13" filter="url(#filter12)" />
    <use xlink:href="#widget13" />
  </g>
</svg>