<?xml version="1.0" encoding="utf-8"?>
<svg version="1.1" xmlns:xlink="http://www.w3.org/1999/xlink" width="8px" height="5px" xmlns="http://www.w3.org/2000/svg">
  <g transform="matrix(1 0 0 1 -142 -309 )">
    <path d="M 4.0025059292075005 4.999999999999999  L 4 4.999999999999999  C 3.839620530720007 4.999999999999999  3.6792410614400146 4.938917975567191  3.5564505302725204 4.814208842350204  L 0.5017228263301569 1.7117510180337403  C 0.2586476932026678 1.4623327515997673  0.2586476932026678 1.0602094240837694  0.5017228263301569 0.8107911576497964  C 0.7447979594576459 0.5613728912158231  1.1432407034501282 0.5639179755671903  1.3888217657851172 0.8107911576497964  L 4 3.462769051774287  L 6.613684163422382 0.8107911576497964  C 6.8592652257573725 0.5613728912158231  7.255202040542354 0.5613728912158231  7.500783102877343 0.8107911576497964  C 7.7463641652123325 1.0602094240837694  7.7463641652123325 1.4623327515997673  7.500783102877343 1.7117510180337403  L 4.44605539893498 4.814208842350204  C 4.323264867767485 4.93891797556719  4.162885398487493 4.999999999999999  4.0025059292075005 4.999999999999999  Z " fill-rule="nonzero" fill="#ffffff" stroke="none" transform="matrix(1 0 0 1 142 309 )" />
  </g>
</svg>