<?xml version="1.0" encoding="UTF-8"?>
<svg id="Layer_1" xmlns="http://www.w3.org/2000/svg" version="1.1" viewBox="0 0 132.6 152.8">
  <!-- Generator: Adobe Illustrator 30.3.0, SVG Export Plug-In . SVG Version: 2.1.3 Build 182)  -->
  <defs>
    <style>
      .st0 {
        stroke: #fff;
        stroke-miterlimit: 10;
        stroke-width: 3px;
      }

      .st0, .st1 {
        fill: #fff;
      }
    </style>
  </defs>
  <path class="st0" d="M34.3,82.5c2.7-9.1,11.1-15.7,21.1-15.7h6.3c1.7,0,3.2,1.4,3.2,3.2s-1.4,3.2-3.2,3.2h-6.3c-6.5,0-12,3.9-14.4,9.4h12.8c1.3,0,2.4,1.1,2.4,2.4s-1,2.4-2.4,2.4h-14.1c0,.5,0,1,0,1.6s0,1.1,0,1.6h14.1c1.3,0,2.4,1.1,2.4,2.4s-1,2.4-2.4,2.4h-12.8c2.4,5.6,8,9.4,14.4,9.4h6.3c1.7,0,3.2,1.4,3.2,3.2s-1.4,3.2-3.2,3.2h-6.3c-10,0-18.4-6.6-21.1-15.7h-3.3c-1.3,0-2.4-1.1-2.4-2.4s1-2.4,2.4-2.4h2.4c0-1,0-2.1,0-3.2h-2.4c-1.3,0-2.4-1.1-2.4-2.4s1-2.4,2.4-2.4h3.3Z"/>
  <path class="st0" d="M107.1,75.8c0-3.1-2.5-5.5-5.5-5.5s-5.5,2.5-5.5,5.5v56.6l-14.5-14.5c-2.2-2.2-5.7-2.2-7.8,0s-2.2,5.7,0,7.8l23.9,23.9c2.2,2.2,5.7,2.2,7.8,0l24-23.9c2.2-2.2,2.2-5.7,0-7.8-2.2-2.1-5.7-2.2-7.8,0l-14.5,14.5v-56.6h0Z"/>
  <path class="st1" d="M96.7,37.4L64.3,4.9c-3.2-3.2-7.5-4.9-12-4.9H16.9C7.6,0,0,7.6,0,16.9v101.6c0,9.3,7.6,16.9,16.9,16.9h47.6v-12.7H16.9c-2.3,0-4.2-1.9-4.2-4.2V16.9c0-2.3,1.9-4.2,4.2-4.2h29.6v23.3c0,10.5,8.5,19,19.1,19h23.3v7.5h12.7v-13.1c0-4.5-1.8-8.8-4.9-12h0ZM65.6,42.3c-3.5,0-6.3-2.8-6.3-6.3v-18l24.4,24.4s-18,0-18,0Z"/>
  <path class="st1" d="M31.8,42.3h-4.2c-3.5,0-6.4,2.8-6.4,6.3s2.8,6.3,6.4,6.3h4.2c3.5,0,6.4-2.8,6.4-6.3s-2.8-6.3-6.4-6.3Z"/>
  <path class="st1" d="M31.8,21.2h-4.2c-3.5,0-6.4,2.8-6.4,6.4s2.8,6.3,6.4,6.3h4.2c3.5,0,6.4-2.8,6.4-6.4s-2.8-6.4-6.4-6.3Z"/>
</svg>