<?xml version="1.0" encoding="UTF-8"?>
<svg id="Layer_1" xmlns="http://www.w3.org/2000/svg" version="1.1" viewBox="0 0 143.6 191.5">
  <!-- Generator: Adobe Illustrator 30.3.0, SVG Export Plug-In . SVG Version: 2.1.3 Build 182)  -->
  <defs>
    <style>
      .st0 {
        fill: #fff;
      }
    </style>
  </defs>
  <path class="st0" d="M125.7,65.8v101.7c0,3.3-2.7,6-6,6H23.9c-3.3,0-6-2.7-6-6v-101.7h107.7,0ZM125.7,47.9H18v-23.9c0-3.3,2.7-6,6-6h95.8c3.3,0,6,2.7,6,6v23.9h0ZM143.6,47.9v-23.9c0-13.2-10.7-23.9-23.9-23.9H23.9C10.7,0,0,10.7,0,23.9v143.6c0,13.2,10.7,23.9,23.9,23.9h95.8c13.2,0,23.9-10.7,23.9-23.9V47.9h0ZM29.9,86.8c0,5,4,9,9,9s9-4,9-9-4-9-9-9-9,4-9,9ZM38.9,110.7c-5,0-9,4-9,9s4,9,9,9,9-4,9-9-4-9-9-9ZM29.9,152.6c0,5,4,9,9,9h32.9c5,0,9-4,9-9s-4-9-9-9h-32.9c-5,0-9,4-9,9ZM71.8,77.8c-5,0-9,4-9,9s4,9,9,9,9-4,9-9-4-9-9-9ZM62.8,119.7c0,5,4,9,9,9s9-4,9-9-4-9-9-9-9,4-9,9ZM104.7,77.8c-5,0-9,4-9,9s4,9,9,9,9-4,9-9-4-9-9-9ZM95.7,119.7c0,5,4,9,9,9s9-4,9-9-4-9-9-9-9,4-9,9ZM104.7,143.6c-5,0-9,4-9,9s4,9,9,9,9-4,9-9-4-9-9-9Z"/>
</svg>