<?xml version="1.0" encoding="UTF-8"?>
<svg id="Ebene_2" xmlns="http://www.w3.org/2000/svg" version="1.1" viewBox="0 0 682.7 682.7">
  <!-- Generator: Adobe Illustrator 30.3.0, SVG Export Plug-In . SVG Version: 2.1.3 Build 182)  -->
  <defs>
    <style>
      .st0 {
        fill: none;
      }

      .st1 {
        fill: #b1b5bc;
      }
    </style>
  </defs>
  <g id="Ebene_1-2">
    <g id="Tee_Gschwender">
      <rect class="st0" width="682.7" height="682.7"/>
      <g id="layer1">
        <g id="g1506">
          <path id="path1508" class="st1" d="M154.6,276.3c10.1,0,22.7,3.3,32,14.3-.3,1.1-1.6,2.1-3.1,3.1-6.9-8.6-17.9-11.6-25.6-11.6-22,0-39,19.2-39,57.1s22.1,60.9,44.2,60.9,19.8-5.3,29.2-17.1c1.1.3,2.4,1.6,3.8,2.7-10.6,14.5-26,21.3-39,20.8-24.6-1-50.3-19.3-56.2-50.6-3.2-20.3.5-33.2,1.5-37,7.5-27.2,31.3-42.6,52.3-42.6M285.5,278.1v37c0,3.4-7.3,3.3-8.6,3.3-11.9,0-16.2-8.8-31.6-8.8s-15.4,1.8-22.4,6.1v-37.4h-19.1v125.6h18.8v-78.1c0-2.6,6-4.4,7.1-4.5,1.2-.2,3.1-.4,3.9-.4,10.2,0,24.4,9.1,34.9,9.1s11.1-2,17-4.6v78.2h18v-125.6h-18.1ZM427.5,403.8h18.7v-125.1h-18.7v125.1ZM488.3,277.1c-14.7,0-26.5,8.1-26.5,24.7,0,32,51,54.2,51,78.1s-9,21.2-22.2,21.2-20.4-7.7-28.7-15.6h-4.5c8.5,15,23,20.1,34.3,20.1s2.6,0,6.3-.3c22-2.5,27.4-19.2,27.4-33.7,0-37-50.7-51.9-50.7-77.2s7.2-12.9,15-12.9,4.6-.1,8.2,1.9c1.3.7,3.5,2.8,4.2,2.8s2.8-2,3.5-3.2c-5.8-5-11.6-5.9-17.3-5.9M515.4,284.7h25.6v119.2h18.7v-119.4h23.4c-.1-3.8-.2-4.9,0-6.1h-67.8v6.4h0ZM415.5,388.4c-9.4,3.1-8,4.2-15.5,4.2-16.3,0-46.5-15.3-58.2-30.7,15.1-3.5,63.7-14,63.7-44.3s-5.1-26.9-21.8-35.5c0,0-3-1.4-5.8-2.2-4.5-1.3-9.1-1.9-9.1-1.9-10.9-1.6-20.1-.8-20.1-.8-9.4.4-19.1,3.3-28.3,5v121.1h18.7v-36.2c20,15.3,52.4,36.6,75.7,36.6s-.6,0,.6-.1v-15.4h0ZM337.7,358.7v-13.5c0,0,0-4.3,0-4.3v-9.1s0-46.5,0-46.5c4.7-.7,8-1.6,14-1.6,22.7,0,35.2,14.3,35.2,36.3s-12.8,29.5-34.7,35.7c-3.6,1-10.6,2.4-11.4,2.4"/>
        </g>
      </g>
    </g>
  </g>
</svg>