<?xml version="1.0" encoding="utf-8"?>
<svg version="1.1" xmlns:xlink="http://www.w3.org/1999/xlink" width="19px" height="24px" xmlns="http://www.w3.org/2000/svg">
  <g transform="matrix(1 0 0 1 -479 -5661 )">
    <path d="M 17.973372781065095 16.848192771084335  L 17.97603550295858 16.845421686746988  C 17.94940828402367 16.93409638554217  17.51538461538462 18.505301204819276  16.450295857988166 20.120843373493976  C 15.528994082840239 21.51469879518072  14.578402366863909 22.919638554216867  13.073964497041423 22.944578313253015  C 11.596153846153848 22.972289156626506  11.12218934911243 22.027349397590363  9.434023668639059 22.027349397590363  C 7.745857988165686 22.027349397590363  7.218639053254442 22.919638554216867  5.820710059171603 22.972289156626506  C 4.374852071005922 23.033253012048192  3.2644970414201233 21.448192771084337  2.340532544378704 20.06265060240964  C 0.45266272189349643 17.222289156626506  -1.0038461538461483 12.009879518072289  0.9479289940828454 8.518313253012048  C 1.9065088757396502 6.769759036144578  3.631952662721899 5.661325301204818  5.511834319526633 5.630843373493975  C 6.928402366863912 5.603132530120481  8.273076923076928 6.628433734939758  9.133136094674562 6.628433734939758  C 9.993195266272194 6.628433734939758  11.646745562130183 5.386987951807228  13.364201183431959 5.572650602409638  C 14.083136094674563 5.60590361445783  16.096153846153854 5.885783132530119  17.39289940828403 7.842168674698795  C 17.29171597633137 7.9142168674698805  14.983136094674563 9.330240963855422  15.009763313609476 12.214939759036143  C 15.044378698224858 15.695421686746988  17.944082840236696 16.837108433734937  17.973372781065095 16.848192771084335  Z M 8.976035502958585 5.323253012048193  C 10.206213017751484 5.400843373493977  11.471005917159768 4.65265060240964  12.2405325443787 3.7049397590361446  C 13.015384615384617 2.721204819277108  13.523964497041423 1.3689156626506018  13.390828402366866 0.02493975903614395  C 12.283136094674559 0.06927710843373415  10.935798816568049 0.7897590361445774  10.134319526627221 1.767951807228915  C 9.426035502958582 2.62144578313253  8.80029585798817 3.9959036144578315  8.976035502958585 5.323253012048193  Z " fill-rule="nonzero" fill="#060608" stroke="none" transform="matrix(1 0 0 1 479 5661 )" />
  </g>
</svg>