<?xml version="1.0" encoding="UTF-8"?>
<svg id="Ebene_2" xmlns="http://www.w3.org/2000/svg" version="1.1" viewBox="0 0 682.7 682.7">
  <!-- Generator: Adobe Illustrator 30.3.0, SVG Export Plug-In . SVG Version: 2.1.3 Build 182)  -->
  <defs>
    <style>
      .st0 {
        fill: none;
      }

      .st1 {
        fill: #9b9fa9;
      }
    </style>
  </defs>
  <g id="Ebene_1-2">
    <g id="Tee_Gschwender">
      <rect class="st0" width="682.7" height="682.7"/>
      <g id="nW4ubV">
        <g>
          <path class="st1" d="M231.9,453.7h-2.9c-9.5,0-18-5.2-21.7-14.4-1.8-4.4-3-8.9-3-13.9v-74c0-1.4,1.3-2.2,2.4-2.2h10c1.1,0,2.4.9,2.4,2.3v73.2c0,7.5,3.7,15.3,11.4,15.3s7.3-1.9,9.1-5.6c1.4-2.7,2.4-5.9,2.4-9.2v-73.4c0-1.4.9-2.6,2.3-2.6h10.4c1.1,0,2.2.9,2.2,2.2v74c0,4.9-1.2,9.4-2.9,13.8-3.7,9.3-12.4,14.3-22,14.5h-.1Z"/>
          <path class="st1" d="M340.8,285.9c-10.2,6.4-21.6,8.9-33.6,8.5-18.5-.8-36-9.5-47.9-23.8,8.2-5.2,17.1-7.9,26.5-9.3-7.6-9.3-13.1-20-15.6-32.2,9.1-.4,17.9,1.3,26.8,4-1.4-9.1-1.2-18.1.9-26.9,9.8,3.9,17.9,9.7,25.2,16.6,4-10.6,9.9-19.9,17.9-28,7.8,8.2,13.6,17.5,17.5,28,7.3-7,15.4-12.7,25.2-16.7,2.1,8.8,2.3,17.8.9,26.9,8.8-2.7,17.4-4.3,26.8-4.1-2.2,11.9-7.8,22.7-15.5,32.3,9.3,1.5,18.5,4.1,26.5,9.4-12.2,14.6-29.7,23.2-48.3,23.8-12,.3-23.3-2.4-33.2-8.6h0ZM340.8,255.8c2.6-11.2,7.1-21.2,14.7-29.7-3.3-9.6-8.3-18.2-14.7-25.7-6.6,7.8-11.6,16.1-14.8,25.6,7.6,8.5,12.1,18.5,14.8,29.7h0ZM319.8,245.9c-.5-6.9.2-12.6,2-18.8-6-6.4-13.1-11.5-21-15.5-1.2,7.8-1,15.3.5,23.1,7,2.7,13,6.5,18.6,11.3h-.1ZM361.6,246.2c5.5-4.9,11.8-8.8,18.8-11.6,1.5-7.7,1.7-15.3.5-23-7.9,3.9-15,9.1-21.1,15.6,1.8,6.3,2.4,12.2,1.9,19h0ZM338.8,271.6c.2-9.5-2.1-18-5.2-26.5-2.4-5.2-4.8-10.1-8.8-14.5-1,6.6-2.8,14.5.6,20.7,4.6,6.7,10.1,12.6,13.4,20.4h0ZM342.9,271.5c3.9-7.6,8.3-14,13.7-20,2-6.9,1.9-13.7.2-20.8-3.4,4.1-5.7,8.1-7.9,12.7-3.7,8.9-6.1,18.2-6,28.1h0ZM308.6,262.4c-5.1-7.9-8.7-16-10.7-24.9-7.6-2.7-15.1-4.1-22.9-4.7,3.2,10.6,8.3,20,15.6,28,6.1-.4,11.9.2,18,1.5h0ZM373.1,262.3c6.5-1.2,12-1.8,18-1.4,7.2-8.1,12.3-17.4,15.5-28-7.9.6-15.6,2-22.9,4.8-2,9-5.7,17-10.6,24.7h0ZM330.5,272.1c-3.7-6.1-6.8-12-8.9-18.8-5.3-6.2-11.7-10.8-19.2-14.1,2.5,9.2,6.6,17.7,12.7,25.1,5.5,2.1,10.3,4.6,15.4,7.7h0ZM366.7,264.3c6-7.5,10.2-15.8,12.5-24.9-7.9,3.3-14.1,8.1-19.3,14.2-2,6.5-4.9,12.2-8.4,18.3,5.1-3,9.8-5.4,15.2-7.5h0ZM312.6,267.5c-6.2-2-12-3.1-18.3-2.9,9.6,8.9,21.2,14.4,34.2,16.2-6-3.6-11.3-7.8-15.9-13.3h0ZM353.4,280.8c13.1-1.8,24.5-7.4,34-16.1-6.4-.2-12.4.9-18.4,3-4.5,5.4-9.8,9.6-15.6,13.1h0ZM333.4,285.4c-17.6-1.5-32.8-8.4-44.4-20.6-8.4.8-16.3,3.1-23.8,6.7,5,5,10.3,9,16.5,12.2,16,8.4,35.4,9.4,51.7,1.7h0ZM399.3,284.1c6.6-3.3,12-7.4,17.2-12.5-7.5-3.6-15.4-5.9-23.8-6.8-11.9,12.5-27.8,19.4-44.8,20.6,16.7,7.6,35.3,6.9,51.4-1.3h0Z"/>
          <path class="st1" d="M320.5,450.6l-14.3-37.1h-7.6c-.8,0-1.9.8-1.9,1.6v34.9c0,1.2-1.2,2.4-2.3,2.4h-10.4c-1.2,0-2.2-1.2-2.2-2.5v-98.6c0-1.4,1.1-2.3,2.4-2.3h24.3c10.3.2,18.5,7.3,21.6,16.9,1.6,4.9,1.8,9.7,1.8,14.9.4,12-1.9,22.5-12.1,29.1l16.1,40-.2,1.7c0,.4-1.1.7-1.5.7h-10.7c-1,0-2.4-.7-2.9-1.9h0v.2ZM316.2,390.6c.9-3.7.7-7.2.7-10.9s-.1-6.8-1.3-10c-1.5-4.1-5.1-7.3-9.6-7.3h-7.5c-.8-.1-1.9.8-1.9,1.7v33.7c0,1,1,2.1,1.9,2l8.1-.2c4.8-.1,8.4-4.3,9.5-9.1h0Z"/>
          <path class="st1" d="M149.7,415.3c-1,0-2,.9-2,1.9v32.9c0,1.4-1.1,2.5-2.4,2.5h-10.1c-1.2,0-2.3-1.1-2.3-2.5v-98.3c0-1.7,1-2.7,2.6-2.6h24.3c13.3.2,23.1,12.9,23,26v14c0,13.5-9.8,25.9-23.4,26h-9.6c0,.1-.1.1-.1.1ZM168,388v-12c0-7-4.2-13.6-11.5-13.6h-6.7c-1.2,0-2.1.9-2.1,2.2v35c0,1.3,1,2.1,2.1,2.1h7.9c5.9-.3,10.3-7,10.3-13.6h0Z"/>
          <path class="st1" d="M512.2,406.1h-21.2c-1.1,0-2,.9-2,2.1v29.2c0,1,1.1,2,2.1,2h21.1c1.2,0,2.4,1,2.4,2.2v8.7c0,1.2-1,2.1-2.3,2.3h-35.5c-1.4,0-2.6-.9-2.6-2.5v-98.3c0-1.6,1-2.7,2.5-2.7h35.4c1.2,0,2.4,1,2.4,2.2v8.7c0,1-1,2.3-2.2,2.3h-21.3c-1.2,0-2,.9-2,2.2v26.4c0,1,1.1,2,2.1,2h21c1.1,0,2.4,1,2.4,2.2v8.7c0,1-.9,2.4-2.2,2.4h-.1Z"/>
          <path class="st1" d="M394.8,406.1h-21.6c-.7,0-1.5.9-1.6,1.7v29.6c0,.9.8,1.8,1.7,2h21.4c1.2,0,2.3,1,2.3,2.2v8.6c0,1.3-1,2.4-2.5,2.4h-35.2c-1.4,0-2.6-.9-2.6-2.5v-98.6c.2-1.4,1.1-2.3,2.5-2.3h35.4c1.2,0,2.4,1,2.4,2.2v9c0,.9-1.1,2-2.1,2h-21.8c-.7,0-1.6,1.1-1.6,1.8v26.8c0,1.1,1,2,2.1,2h21c1.2,0,2.3,1,2.3,2.2v9c0,.8-1.1,2-2.2,2h.1Z"/>
          <path class="st1" d="M461.5,441.2v9.1c0,1.1-1.1,2.3-2.4,2.3h-34.7c-1.3,0-2.4-1-2.4-2.4v-98.8c0-1.3,1.1-2.2,2.2-2.2h10.4c1.4,0,2.2,1.2,2.2,2.6v85.5c0,1.1.9,2.1,1.9,2.1h20.6c1,0,2,.8,2.2,1.8h0Z"/>
          <rect class="st1" x="533.8" y="349.1" width="14.8" height="103.5"/>
        </g>
      </g>
    </g>
  </g>
</svg>