<?xml version="1.0" encoding="UTF-8"?>
<svg id="Ebene_2" xmlns="http://www.w3.org/2000/svg" version="1.1" viewBox="0 0 682.7 682.7">
  <!-- Generator: Adobe Illustrator 30.3.0, SVG Export Plug-In . SVG Version: 2.1.3 Build 182)  -->
  <defs>
    <style>
      .st0 {
        fill: none;
      }

      .st1 {
        fill: #9b9fa9;
      }
    </style>
  </defs>
  <g id="Ebene_1-2">
    <g>
      <g id="DYEpMs">
        <g>
          <path class="st1" d="M77,423.6v-166h528.7v166H77ZM170.4,377.4c6.1-5.5,8.9-12.5,8.7-20.5-.2-4.7-1.6-8.8-4.8-12.4-4.5-5.1-10.4-8.5-17-10.2-3.8-1-7.5-2.4-10.5-5.2s-3-7.3-.9-10.6c2-3,5.9-4.7,9.8-3.5,3.5,1,5.9,4.4,6.3,8.4h17.1c.1-10.4-5.9-19-14.1-23.2-9.2-4.7-20.1-3.6-27.9,2.7-8.8,7-12.7,19-8,29.4,2.9,6.4,8.9,10.9,15.2,13.7,4.4,2,8.7,3.2,13.1,4.8,2.4.9,3.8,2.6,4.3,5.2,1.1,5.2-2.6,10.1-7.7,10.6s-9.5-3.5-9.5-8.6h-17.4c0,10.6,6.3,19.6,15.1,23.6,9.5,4.4,20.6,2.7,28.2-4.2h0ZM255.5,384v-86.6c0,0-17.3,0-17.3,0v47.3c0,0-52.1-47.4-52.1-47.4v86.8h17.4s0-47.4,0-47.4l51.9,47.3h0ZM351.8,340.7c0-24-19.4-43.4-43.4-43.4s-43.4,19.4-43.4,43.4,19.4,43.4,43.4,43.4,43.4-19.4,43.4-43.4ZM430.8,371.4l-12.2-12.3c-9.8,9.9-25.6,10.2-35.8,1-10.1-9.1-11.7-24.6-3.1-35.4,9.6-12.3,27.5-13.6,38.9-2.4l12.3-12.2c-7.8-7.6-17.8-12.3-28.6-12.6-12.9-.8-24.5,4.1-33.3,13.2-7.6,7.9-11.8,17.8-12.1,28.8-.3,11.4,3.5,21.8,11.1,30.2,9.3,10.2,22.1,15.4,36.1,14.1,10.1-.9,19.2-5.2,26.8-12.5h0ZM467.9,341.4l25.6-44h-20s-19,32.6-19,32.6v-32.7c-.1,0-17.4,0-17.4,0v86.7h17.3l.2-31.6,22.1,31.6h21.1c0,0-29.7-42.7-29.7-42.7h0ZM512.5,377.6c8.1,7.3,20.1,8.4,29.5,3.3,9.1-5,14.6-15,13.4-25.6s-11.4-18.2-21.5-20.9c-3.8-1-7.6-2.5-10.6-5.1s-3.1-7.5-1-10.6,5.9-4.7,9.7-3.6,6.2,4.4,6.3,8.4h17.3c.2-10.2-6-19.2-14.6-23.4-9.6-4.7-20.8-3-28.6,3.9s-11.5,18.9-6.7,28.9c3.2,6.7,9.6,11.4,16.4,13.9l12.5,4.6c2.9,1.1,3.8,4.2,3.7,7.1-.2,4.8-4.2,8.4-8.8,8.4s-8.5-3.8-8.5-8.6h-17.3c0,7.8,3.1,14.3,8.9,19.6h0Z"/>
          <circle class="st1" cx="308.4" cy="340.7" r="26"/>
        </g>
      </g>
      <rect class="st0" width="682.7" height="682.7"/>
    </g>
  </g>
</svg>