<?xml version="1.0" encoding="UTF-8"?>
<svg id="Ebene_2" xmlns="http://www.w3.org/2000/svg" version="1.1" viewBox="0 0 682.7 682.7">
  <!-- Generator: Adobe Illustrator 30.3.0, SVG Export Plug-In . SVG Version: 2.1.3 Build 182)  -->
  <defs>
    <style>
      .st0 {
        fill: none;
      }

      .st1 {
        fill: #9b9fa9;
      }
    </style>
  </defs>
  <g id="Ebene_1-2">
    <g id="DocuWare">
      <rect class="st0" width="682.7" height="682.7"/>
      <g id="BxR9ld.tif">
        <g>
          <path class="st1" d="M184.1,341.4c0,32-26,58-58.1,58s-58.1-26-58.1-58,26-58,58.1-58,58.1,26,58.1,58ZM107.1,334h-14.6v14.7h14.8v14.8h14.8v15.1c20.8,0,37.4-17,37.3-37.4s-16.8-37.1-37.3-37v15.1h-14.8v14.5l.2.2h14.5v-14.7c12.7,0,22.4,10.3,22.3,22.4-.1,11.9-9.7,21.9-22.3,21.9v-14.8h-14.8v-14.6h-.2v-.2h0Z"/>
          <polygon class="st1" points="479.9 312.5 495.2 312.4 478.9 369.4 464.6 369.5 453.8 333.2 443.1 369.4 428.8 369.4 412.5 312.5 428.3 312.4 436.9 347.7 446.5 312.5 461.5 312.4 471.2 347.7 479.9 312.5"/>
          <path class="st1" d="M261.4,331.8c3.7,13.4-1,27.8-14,34-4.7,2.1-9.6,3.6-14.9,3.6h-23.5v-56.9h22.1c5.7,0,11.1,1.2,16.3,3.3,7,3,12,8.6,14,16h0ZM246.5,346.5c1.1-4.3,1-8.4-.4-12.4-4.3-9.2-13.1-9-22.8-8.8v31.4c10,.3,19.5,0,23.2-10.2Z"/>
          <path class="st1" d="M309.5,362.8c-9.6,10.6-28,10.5-37.4.3-4.5-4.8-6.2-11-6-17.5.5-9.6,6.4-17.5,15.6-20.4,6-1.9,12.2-1.9,18.2.1,9.5,3.2,15.4,11.6,15.4,21.6s-1.6,11.4-5.7,16h-.1ZM297.3,356.4c3.2-2.8,4.3-6.4,4-10.5s-2.7-7.9-6.7-9.5c-2.2-.9-5.8-.9-7.9,0-4.9,1.9-6.6,6.4-6.5,11.1,0,4.2,2,8.2,5.6,10s8.2,1.6,11.4-1.1h.1Z"/>
          <path class="st1" d="M408.9,325.2v44.1h-13.8l-.3-6c-3.4,5.1-8.6,7.5-14.7,7.3s-11.3-3.8-13.4-9.5c-1-2.8-1.4-5.7-1.4-8.8v-27h14.5v26.1c0,2.8,1.5,5.7,4,6.8,2.2,1,5.1.7,7-.7,2.4-1.8,3.7-5,3.7-8.1v-24.1h14.5-.1Z"/>
          <path class="st1" d="M604.6,355.1l10.1,6.3c-8,11.8-28.1,12.2-37.9,2.7-9.1-8.8-8.7-25.9,1-34.4,5.3-4.7,12.3-6.4,19.3-5.8,13.9,1.3,20.5,13.5,19.3,27.2h-32.2c.4,2.6,1.4,4.5,3.2,5.9,5.2,4.1,12.9,3.7,17.4-1.9h-.2ZM603.1,342.2c0-5.4-4-8.7-9-8.5s-9.7,3.1-9.9,8.6h18.9Z"/>
          <path class="st1" d="M499.8,368.7c-5.2-2.2-7.9-6.9-7.8-12.3.2-13.1,16.8-14.5,28.5-14.7.6-3.5-1.8-6.3-5.3-6.9-4.9-1-9.7.6-13.7,4.3l-7.4-7.9c5.8-5.2,12.8-7.4,20.3-7.4,7.5.1,14.3,2.1,17.4,9.1,1.4,3.2,2.3,6.9,2.3,10.6v25.8h-13l-.2-4.6c-5,6.2-13.9,7-21.1,4h0ZM517.2,359.4c3.3-2,4.1-5.6,3.8-9.2h-5.3c-4.7,0-10,1.6-10.2,5.7,0,1.5.5,3.2,2.1,4,3,1.4,6.7,1.3,9.6-.5h0Z"/>
          <path class="st1" d="M352.3,355.4l8.1,9.8c-4.6,4-10.5,5.6-16.6,5.5-14,0-24.5-8.9-24.7-23,0-7.1,2.5-13.8,8.1-18.3,9.3-7.4,24.3-7.5,33.2.3l-8.4,9.7c-2.4-2.6-5.6-3.9-8.9-3.5s-6.1,2.4-7.7,5.5c-2.2,4.1-2,9.1.6,13,3.9,5.4,11.6,5.8,16.4,1h-.1Z"/>
          <path class="st1" d="M554.2,369.3h-14.4v-44.1h13.8l.2,6.4c3.3-5.8,8.9-8.8,15.2-7.3l-.7,12.7c-3.7-.8-7.1-.6-9.9,1.5-2.5,1.8-4.3,4.9-4.3,8.5v22.4h.1Z"/>
        </g>
      </g>
    </g>
  </g>
</svg>