<?xml version="1.0" encoding="UTF-8"?>
<svg id="Ebene_2" xmlns="http://www.w3.org/2000/svg" version="1.1" viewBox="0 0 682.7 682.7">
  <!-- Generator: Adobe Illustrator 30.3.0, SVG Export Plug-In . SVG Version: 2.1.3 Build 182)  -->
  <defs>
    <style>
      .st0 {
        fill: none;
      }

      .st1 {
        fill: #9b9fa9;
      }
    </style>
  </defs>
  <g id="Ebene_1-2">
    <g>
      <g id="_68vFD7.tif">
        <g>
          <path class="st1" d="M598.9,360.1v9.2l-1.5,1.7h-38c-1.1,0-2-1.1-2-2.2v-74.1c0-1,1.1-2.1,1.9-2.1h11c.8,0,2,1,2,2.1v63.7h25l1.6,1.8h0Z"/>
          <path class="st1" d="M187,389.9v39.6c0,0-97.8-56.2-97.8-56.2-3.2-2.5-5.4-6-5.4-10.2v-65.2c0-4.2,2.4-8.5,6-10.5l56.7-32.4c4.1-2.4,9.1-1.8,13,.4l55.7,31.9c3.9,2.2,6,6.5,6,11v65c-.2,4.9-2.7,8.8-7,11.1l-27.3,15.7h0ZM171.9,322.7l-28.1-16.2c1-6.2-2.6-11.6-8-13.4s-11.2.6-14,5.4-1.6,11.2,2.6,14.7c4.4,3.8,10.6,3.7,15.4,0l28.3,16.4c-1,6.3,2.7,11.4,8.2,13.2s11.2-.9,13.9-5.6c2.9-5.2,1.3-11.5-3.1-15-4.4-3.5-10.6-3.3-15.1.4h0ZM164.2,345.1c-1.7-2.4-2.9-4.3-4-6.8l-20.6,11.7c-4.9-3.8-11.3-3.7-15.7.2-4.2,3.8-5.2,9.9-2.2,14.9,2.9,4.7,8.8,6.9,14.2,4.9s8.5-7.1,7.6-13.1l20.6-11.8h0Z"/>
          <path class="st1" d="M304.5,368.1c-6.5,1.8-12.5,2.8-19.1,2.8h-20c-2.6,0-4.8-2-4.8-4.7v-68.6c0-2.8,2-5.1,4.9-5.1h25.6c4.6,0,9.5.5,13.8,2.1,20.5,7.5,26.8,36.4,17,56.7-3.7,7.6-9.9,12.8-17.4,16.8h0ZM309.1,318.7c-6.2-14.2-19-13.6-33.6-13.5v53.1h9.3c5.8,0,11.7-1.5,16.6-4.7,9.9-6.4,12.1-23.8,7.6-34.9h0Z"/>
          <path class="st1" d="M495.7,393h-10.8c-1.2,0-2.3-1-2.3-2.4v-76.4c0-.8,1.1-2,1.7-2h6.8l6.4,5.9c12.7-12.3,31.4-12.4,42.2,1.6,4.3,5.6,6.2,12.1,6.5,19.2.5,10.9-3.9,20.7-12.7,27.4-11.9,8.1-25.1,6.2-36.1-3.8v28.4c0,.7-1.2,2.1-1.9,2.1h0ZM529.5,349.9c3.1-5.5,3.3-12.3.7-18-3.5-7.7-11.7-10.9-19.5-8.8-7.7,2.1-12.1,9.4-11.9,17.5.2,7.8,4.4,14.7,12,16.8s14.8-.5,18.8-7.5h0Z"/>
          <path class="st1" d="M431.3,356.7c8,4.2,17.4,2.7,24.2-3.5l9.8,4.1c.5.2,1.4,1.1,1.5,1.6s-.4,1.7-.8,2.1c-4.6,5.4-10.6,8.6-17.6,9.7-6.8,1-13.6.8-20-1.7-12.4-5-19.1-16.8-18.8-29.7.5-18.5,15.5-31.9,33.9-30.3,12.7,1.1,23.2,8.7,26.7,21.4,1.3,4.6,1.8,9.3,1.8,14.3,0,1.2-1.2,2.2-2.5,2.2h-45.6c1,4,3.3,7.7,7.3,9.8h0ZM424.3,334.1h33.4c-.8-2.7-2.1-5.5-4.2-7.6-6.8-6.7-17.3-6.8-24.5-.9-2,2.7-3.6,5.2-4.6,8.5h0Z"/>
          <path class="st1" d="M359.4,357.1c8.1,3.6,16.9,1.8,23.5-4.1l10.3,4.6c1.1.5,1,2.3.3,3.1-4.8,5.7-11,9-18.3,10.1-5.4.8-10.8.7-16-.7-14.2-3.7-22.5-16.5-22.2-30.7.5-18.5,15.3-32.1,33.9-30.5,12.8,1.1,23.5,8.9,26.8,21.7,1.2,4.5,1.7,9.1,1.7,13.9,0,1.2-1.3,2.2-2.5,2.2h-45.6c1,4.4,3.8,8.3,8.2,10.3h0ZM351.5,334.1h33.4c-1-3.1-2.3-5.8-4.5-7.9-6.8-6.4-17.1-6.5-24.3-.6-2,2.7-3.7,5.2-4.6,8.5h0Z"/>
        </g>
      </g>
      <rect class="st0" width="682.7" height="682.7"/>
    </g>
  </g>
</svg>