<?xml version="1.0" encoding="UTF-8"?>
<svg id="Ebene_2" xmlns="http://www.w3.org/2000/svg" version="1.1" viewBox="0 0 682.7 682.7">
  <!-- Generator: Adobe Illustrator 30.3.0, SVG Export Plug-In . SVG Version: 2.1.3 Build 182)  -->
  <defs>
    <style>
      .st0 {
        fill: none;
      }

      .st1 {
        fill: #9b9fa9;
      }
    </style>
  </defs>
  <g id="Ebene_1-2">
    <g id="Evnetim">
      <rect class="st0" width="682.7" height="682.7"/>
      <g id="g21">
        <g id="g16">
          <path id="path2" class="st1" d="M73.2,337.5c3-6.4,7-11.5,12.6-15.1,5.4-3.7,11.7-5.5,18.9-5.5,10.8,0,19.3,3.9,25.3,11.8,6.1,7.9,9.1,18.3,9.1,31v5.7h-50.3c.4,5.7,2.4,10.5,5.7,14.1s7.9,5.5,13.8,5.5,6.3-.8,9.4-2.1,5.8-3.3,8.1-5.7l9.1,12c-3.6,3.9-7.8,6.9-12.9,8.8-5.1,2.1-10.3,3-15.9,3s-13.9-1.8-19.6-5.2-10-8.4-13.2-14.8-4.6-13.8-4.6-22,1.5-15,4.5-21.4h0ZM92.8,338.4c-2.6,3.7-3.9,8.1-4,13.2h31c-.2-4.9-1.5-9.3-4-13.2-2.4-3.7-6.3-5.7-11.7-5.7-4.9.1-8.7,2-11.2,5.7h-.1Z"/>
          <path id="path4" class="st1" d="M135.8,318.8h21.3l16,56.3,16.3-56.3h21.3l-26.7,80.1h-21.6l-26.7-80.1h0Z"/>
          <path id="path6" class="st1" d="M212.1,337.5c3-6.4,7-11.5,12.6-15.1,5.4-3.7,11.7-5.5,18.9-5.5,10.8,0,19.3,3.9,25.3,11.8,6.1,7.9,9.1,18.3,9.1,31v5.7h-50.3c.4,5.7,2.4,10.5,5.7,14.1s7.9,5.5,13.8,5.5,6.3-.8,9.4-2.1c3.1-1.4,5.8-3.3,8.1-5.7l9.1,12c-3.6,3.9-7.8,6.9-12.9,8.8-5.1,2.1-10.3,3-15.9,3s-13.9-1.8-19.6-5.2-10-8.4-13.2-14.8c-3.1-6.4-4.6-13.8-4.6-22s1.5-15,4.5-21.4h0ZM231.8,338.4c-2.6,3.7-3.9,8.1-4,13.2h31c-.1-4.9-1.5-9.3-4-13.2-2.4-3.7-6.3-5.7-11.7-5.7-5.1.1-8.8,2-11.2,5.7h0Z"/>
          <path id="path8" class="st1" d="M328.9,346.1c0-7.8-3.4-11.8-10.5-11.8s-5.8.9-8.4,2.9c-2.5,2-4.5,4.3-6.3,7v54.5h-19.9v-79.8h19.9v10.5c2.4-3.4,5.5-6.3,9.9-8.8,4.2-2.4,8.8-3.6,13.6-3.6,7.2,0,12.6,2,16,5.8,3.6,3.9,5.2,9.3,5.2,16v60.2h-19.9v-52.9h.4Z"/>
          <path id="path10" class="st1" d="M368.1,395.6c-3.3-3.6-4.9-8.8-4.9-15.9v-43.4h-10.5v-17.5h10.5v-22h19.9v21.9h13.3v17.4h-13.3v38.8c0,2.7.5,4.6,1.5,6.1s2.4,2.1,4.3,2.1,2.4-.1,3.4-.6,2-1,2.5-1.6l4.2,15.3c-3.4,3.1-8.5,4.6-15.4,4.6-7.2.1-12.3-1.6-15.6-5.1h.1Z"/>
          <path id="path12" class="st1" d="M404.6,303.5c-2.4-2.4-3.6-5.1-3.6-8.4s1.2-6.1,3.6-8.5,5.2-3.6,8.4-3.6,6.1,1.2,8.4,3.6c2.4,2.4,3.4,5.2,3.4,8.5s-1.2,6.1-3.4,8.4c-2.4,2.4-5.1,3.4-8.4,3.4s-6-1.2-8.4-3.4h0ZM403,318.8h19.9v80.1h-19.9v-80.1Z"/>
          <path id="path14" class="st1" d="M518.5,345c0-7-3-10.6-9.1-10.6s-5.5,1-7.9,3-4.3,4.3-5.8,7v54.5h-19.9v-53.9c0-7-3-10.6-9.1-10.6s-5.4,1-7.9,3-4.5,4.3-5.8,7v54.5h-19.9v-80.1h20.1v10.5c1.8-3.1,4.8-6,9-8.5s8.8-3.9,13.5-3.9,9.3,1.2,12.7,3.6,5.5,5.8,6.7,10.3c2-3.7,5.2-7,9.6-9.7,4.5-2.7,9-4.2,13.8-4.2s11.4,1.8,15,5.2,5.2,8.8,5.2,16v61h-19.9v-54.1h-.3Z"/>
        </g>
        <g id="_35_11">
          <path id="path18" class="st1" d="M558.8,297h0c9.3,9.3,9.6,23.8,9.6,33.9h2.2c0-10,.3-24.6,9.6-33.9h0c9.3-9.3,23.8-9.6,33.8-9.6v-2.2c-10,0-24.6-.3-33.8-9.6h0c-9.3-9.3-9.6-23.8-9.6-33.9h-2.4c0,10-.3,24.6-9.6,33.9h0c-9.3,9.3-23.8,9.6-33.8,9.6v2.2c10.2,0,24.7.3,34,9.6Z"/>
        </g>
      </g>
    </g>
  </g>
</svg>