<?xml version="1.0" encoding="UTF-8"?>
<svg id="Ebene_2" xmlns="http://www.w3.org/2000/svg" version="1.1" viewBox="0 0 682.7 682.7">
  <!-- Generator: Adobe Illustrator 30.3.0, SVG Export Plug-In . SVG Version: 2.1.3 Build 182)  -->
  <defs>
    <style>
      .st0 {
        fill: none;
      }

      .st1 {
        fill: #9b9fa9;
      }
    </style>
  </defs>
  <g id="Ebene_1-2">
    <g>
      <rect class="st0" width="682.7" height="682.7"/>
      <g id="JOywp7.tif">
        <g>
          <path class="st1" d="M313.5,257c.7,1.4,2.2,5,1.3,6.8-1,2-3,3.7-4.8,5.1-2.5-1.4-6.6-3.6-9-2.5-6.5,2.9-4.8,11.8-7.9,18.4,5.3-3.1,10.7-2.5,15.5.1,4-1.2,8.7-3.1,13.3-.5l7.2-13.7,7.9,13.5c4.3-1.7,9-1.2,13.5.8,4.4-3.1,9.8-3,15.1-.4l-2-7.6c-1-3.7-1.6-8.8-5.6-10.6-2.4-1.1-6.4.8-8.8,2.4-1.9-.8-4.8-3-5.2-5.3-.3-2,.6-4.7,1.4-6.4h4.2l9.1,2.6c4.1,5.5,8.9,9.3,14,13.6,4.6,3.9,7.4,9.3,11,14.2-1.2,3-3.1,5-5.8,6.7-6.3,3.9-13.1,8-20.9,7.8-3.5,0-6.7-.5-10.1-.1l30.8,54.1c1.4-.8,3.1-2.2,3.9-3.3v-55s12.6,0,12.6,0v55.5s88.6,62.9,88.6,62.9l-1.4.2-92.4-52.5-85.5,58.1,19-20.1-53.1-28.9-60.5,35.5,57.2-49.4,13.2,7,33.5-63.9c-3.9-1-7.7.3-11.6,0-9.1-.5-17.6-5.4-24.2-11-2.7-2.3-1.2-4.7.3-6.7,3.3-4.5,6.1-9.1,10.5-12.5,4.8-3.6,8.7-7.3,12.4-12.2l9.3-2.6h4ZM325.9,341.4l30.6-6.6-26.5-33.7-22.3,32.1,26.6-3.7-8.3,11.9h0ZM283.4,368.1l47.1,25.2,44.4-35-18-23-40.6,12.9,6.1-10.9-21.4,5.4-17.6,25.4Z"/>
          <g>
            <path class="st1" d="M644.6,304.7v6.1c-2.3,4.6-7.3,8.5-12.7,7.4s-9.6-5.8-9.4-11.1,4.5-10,9.9-10.7c5.5-.7,10.1,3,12.2,8.3ZM642.5,307.4c0-4.9-4-8.9-8.9-8.9s-8.9,4-8.9,8.9,4,8.9,8.9,8.9,8.9-4,8.9-8.9Z"/>
            <polygon class="st1" points="494.8 327.8 480.9 351.2 467.1 327.5 458.4 351.2 444.9 351.2 465 297.3 481 326.6 496.8 297.2 516.8 351.2 503.2 351.3 494.8 327.8"/>
            <polygon class="st1" points="618.4 351.1 591.9 326.4 591.8 351.3 579 351.2 579.1 297.7 605.9 322.4 606 297.6 618.5 297.5 618.4 351.1"/>
            <polygon class="st1" points="441.1 351.1 414.7 326.5 414.5 351.3 401.7 351.2 401.8 297.7 428.7 322.5 428.8 297.6 441.2 297.6 441.1 351.1"/>
            <polygon class="st1" points="547.5 324.2 534.3 351.2 520.1 351.2 546.9 297.6 574.6 351.1 560.7 351.3 547.5 324.2"/>
            <path class="st1" d="M638.7,313c-.2.2-2.5.6-2.8,0l-1.6-2.7c-.3-.6-1.5-1.5-2.1-1.8s-1.3,1.8-1.3,2.5v1.9c.2.5-1,.4-2.3.5v-11.7l7.8.3c1,0,2.2,2.8,1.7,3.5l-2.2,2.9,2.8,4.6h0Z"/>
            <g>
              <polygon class="st1" points="88 327.5 74.1 351.2 60.2 327.5 51.5 351.3 38.1 351.2 58.1 297.2 74.1 326.6 89.9 297.3 109.9 351.2 96.3 351.4 88 327.5"/>
              <path class="st1" d="M165.5,324.1c0,15.7-12.8,28.5-28.6,28.5s-28.6-12.8-28.6-28.5,12.8-28.5,28.6-28.5,28.6,12.8,28.6,28.5ZM152.9,324.2c0-8.8-7.2-16-16-16s-16,7.1-16,16,7.2,16,16,16,16-7.1,16-16Z"/>
              <polygon class="st1" points="253.8 350.9 227.4 326.4 227.3 351.3 214.5 351.2 214.5 297.6 241.4 322.5 241.5 297.6 253.9 297.6 253.8 350.9"/>
              <path class="st1" d="M209.5,297.5v35.6c-.1,7.1-4.6,14.1-10.8,17.1-5.4,2.6-11.9,2.7-17.3.1-6-2.8-10.7-9.5-10.7-16.4l-.3-36.4h12.5c0,0,0,34.9,0,34.9,0,4.2,3.4,7.1,7.1,7s6.9-3,6.9-7.2v-34.8s12.5,0,12.5,0h0Z"/>
              <polygon class="st1" points="280.2 310.2 280.3 351.2 267.6 351.3 267.6 310.2 258.1 310.1 258.2 297.6 279.3 297.8 290 303.5 290.3 310.1 280.2 310.2"/>
            </g>
          </g>
          <g>
            <path class="st1" d="M526.2,377.8c-6.3,2.4-4.9-6.3-11-6.8l-.3,7.1h-3.2s0-16.2,0-16.2l10.4.3c1.3,0,3,2.8,3,4.1,0,1.7-1.6,3.7-3.4,4.7l4.5,6.8h0ZM520.5,364.8l-5.4-.2v3.8c.1.2,3.5,1.2,6.5-.8.6-.4-.4-2.8-1.1-2.8h0Z"/>
            <polygon class="st1" points="587.4 378 584.2 378.2 584.2 371 577.8 371 577.8 378.2 574.5 378 574.5 361.9 577.7 361.8 577.7 368.3 584.1 368.3 584.2 361.9 587.4 361.8 587.4 378"/>
            <path class="st1" d="M467.4,373.3c1.6-2,4.6-2.5,6.7-2.9,0-.7,0-1.6-.3-1.5l-2.3.2c-1.3.1-3.5.5-4.2.1,1.6-4.2,7-4,9.6-1.3l.6,10.4-4.1-.7c-1.5.6-3.5.8-4.8.4-1.1-.4-2.4-3.3-1.3-4.6h0Z"/>
            <path class="st1" d="M603.6,370.6l4,7.4c-4.6,1.8-5.4-6.1-6.5-4.7-.3.4-1,1.6-1,2.1l-.2,2.5c0,.6-1.9.2-2.8.1v-16.2s3,0,3,0l.2,8.4c2.5-3.1,4-4.6,7.2-3.5l-3.9,3.8h0Z"/>
            <path class="st1" d="M613,375.7c.7,1.6,4.2-2.3,6.4-.6-1.4,3.3-4.5,3.5-6.6,2.9-3.2-1-4.3-3.6-3.8-6.9.5-3.5,3.2-5.5,6.2-5,3.3.6,4.9,3.8,4.2,7h-7.5c0,.1,1.1,2.6,1.1,2.6Z"/>
            <path class="st1" d="M453.3,378h-3.2c0,.1,0-13.4,0-13.4h-4.7s0-2.8,0-2.8h12.9c0,1.1,0,2.8-.5,2.8h-4.2c0-.1-.2,13.5-.2,13.5h0Z"/>
            <path class="st1" d="M535.6,366.4h3.1s0,11.8,0,11.8l-3.4-.5c-.9-.1-2.8.6-3.8.7s-3.2-1.5-3.2-2.5l-.3-9.5h3.1s.2,8.6.2,8.6c0,.7,2.4,1.4,2.9.9s1.3-1.7,1.3-2.5v-6.9c.1,0,.1,0,.1,0Z"/>
            <path class="st1" d="M549.5,377.7l-.2-7.8c0-.7-1.9-1.7-2.5-1.4-.7.3-1.8,1.7-1.8,2.5v6.9c-.1,0-3.1.2-3.1.2v-12l4,1.1c1.2-1.3,6.2-1.6,6.3,1.1l.5,9.5-3.1-.2h0Z"/>
            <rect class="st1" x="480" y="368.4" width="16.4" height="3.1" transform="translate(118.1 858) rotate(-90)"/>
            <path class="st1" d="M462,371.2v6.9s-3.1,0-3.1,0l.2-12c3.7,1.7,8.4-.9,7.4,1-1.6,2.9-4.4,1.7-4.5,4.1h0Z"/>
            <rect class="st1" x="480.4" y="366.2" width="3.1" height="12"/>
            <rect class="st1" x="590.9" y="366.2" width="3.1" height="12"/>
          </g>
        </g>
      </g>
    </g>
  </g>
</svg>