<?xml version="1.0" encoding="UTF-8"?>
<svg id="Ebene_2" xmlns="http://www.w3.org/2000/svg" version="1.1" viewBox="0 0 682.7 682.7">
  <!-- Generator: Adobe Illustrator 30.3.0, SVG Export Plug-In . SVG Version: 2.1.3 Build 182)  -->
  <defs>
    <style>
      .st0 {
        fill: none;
      }

      .st1 {
        fill: #9b9fa9;
      }
    </style>
  </defs>
  <g id="Ebene_1-2">
    <g>
      <rect class="st0" width="682.7" height="682.7"/>
      <g id="dxfx95.tif">
        <g>
          <path class="st1" d="M454.5,424.3v-18.8c-.1,0-10.1,13.6-10.1,13.6l-10-13.5-.3,18.6c0,1.4-.4,2.4-1.5,2.7-1.2.3-2.7-.3-2.7-2.1v-26.4c0-1.1.6-1.8,1.1-2,.9-.4,2.4-.2,3,.8l10.3,15.5,10.4-15.5c.5-.8,1.5-1.1,2.2-1.1s1.9.9,1.9,2.2v25.6c0,1.8-.6,2.8-1.9,2.9-1.6.2-2.6-.8-2.6-2.7h0l.2.2Z"/>
          <path class="st1" d="M576.5,426.9c-5.2-3.9-1.8-9.7-5.3-11.1s-7.7-.7-11.4-.6v9.1c0,1.5-.9,2.4-1.8,2.7-.7.2-2.7-.3-2.7-1.5v-28.6l12.3-.6c4.6-.2,8.5,1.4,10.1,5.3,1.7,4.1.5,8.5-3.5,11.4,2.9,2.2,2.8,6,5.3,12.5.5,1.1-2.1,2.1-3.1,1.4h.1ZM570.2,411.2c2.9,0,3.7-3.7,3.8-5.5,0-1.7-.6-4.8-2.9-4.8l-11.3-.4v10.8h10.5,0Z"/>
          <path class="st1" d="M92.8,410.7c.5,9.8-6,16.5-14.4,16.7-8.9.3-15.6-6.7-15.4-16.2.2-8.5,6.3-15,14.3-15.3s15,5.6,15.5,14.8h0ZM88.2,412.7c.6-7.3-4.4-12.9-10.8-12.6-5.9.3-10.1,5.8-9.8,12.1.2,5.9,4.2,10.8,9.8,11s10.3-4,10.8-10.5h0Z"/>
          <path class="st1" d="M164.5,415c-2.2,0-2.1-1.7-2.1-2.3s.6-1.9,1.6-1.9l10,.3c.2,3.8,1.4,8.9-.2,12.5-2.1,3.7-8.9,3.9-13.1,3.3-9.8-1.5-14.6-11.3-12.3-19.7,2.7-9.6,13-13.8,22.3-10.1,1.5.6,2.5,1.7,1.9,3.3-1.3,3.5-10.5-4.8-17.5,3.7-3.6,4.3-3.6,10.5,0,14.9s9.9,5.5,14.7,2.5c.2-2.2.6-4.7-.5-6.1-.7-1-3.6-.5-4.9-.5h.1Z"/>
          <path class="st1" d="M255.1,425.6c0,1.7-2.9,1.9-3.7.8l-16.9-21.7-.3,19.6c0,1.4-.4,2.5-1.5,2.7-1.5.2-2.4-.8-2.4-2.7v-25.2c0-1.5.6-2.5,1.6-2.7s2,.3,2.8,1.3l16.4,21.3.3-20.8c0-1.3.9-1.7,1.5-1.9.5-.1,2.2.3,2.2,1.2v28.1h0Z"/>
          <path class="st1" d="M127.5,422.5c-.2-2,0-5.5-2-6.5-3.4-1.6-7.5-1-11.7-.7l-.3,10.6c0,1.6-3.9,1.5-4,0v-29.3c0,0,15.5,0,15.5,0,3.8,0,6.5,3.6,7,6.3.9,4.2-.4,7.7-4,10,2.9,2.4,2.4,5.2,3.5,8.1l2.1,5.4c-3,1.5-5.8-.1-6.3-4h.2ZM124.6,411c2.6-.7,3.3-3.6,3.4-5.3.1-1.7-.8-4.5-3-4.9-3.7-.8-7.4-.3-11.2-.2v10.8c4,0,7.2.6,10.9-.4h-.1Z"/>
          <path class="st1" d="M612.6,413l-11.7.2c-.6,3.2-.7,6,0,9.6l13.5.2c1.2,0,1.2,3.7.3,3.7h-18.4v-30.2h17.8c1.2-.1,1.6,2,1,3-.5.9-1.5,1.1-3.1,1.1h-11.1c-.7,3.2-.7,5.6,0,8.7l12,.3c1.3,0,1.4,3.3-.2,3.4h0Z"/>
          <path class="st1" d="M409.1,413.3h-10.2c-.8,3.3-.9,6.6.3,9.7h12c1.5,0,2.5.6,2.5,2s-.5,2.1-2.5,2.1l-16.8-.3-.2-30,17-.5c1.9,0,2.5.9,2.6,2,0,1.4-1.1,2.2-2.7,2.2h-12.1c-.7,3.3-.7,5.8-.1,8.7h10.3c1.5.1,2.4.6,2.5,1.7.2,1.4-.6,2.3-2.5,2.3h0Z"/>
          <path class="st1" d="M533.4,419.4l-13.3-.2-3.1,6.8c-.4.9-1.6,1.2-2.2,1.1-.9-.1-1.8-1.3-1.3-2.7l11.2-27c.4-1,1.5-1.3,2.2-1.3s1.6.4,2,1.4l11.1,26.8c.4,1,0,2-.6,2.3-.7.5-2.4.7-2.9-.4l-3-6.9h-.1ZM531.5,415.1l-4.8-11.3-5,11.4h9.8Z"/>
          <path class="st1" d="M208.3,419.4h-13.3l-3.1,6.9c-.5,1.1-2.1,1.1-2.9.6-.7-.5-.8-1.7-.3-2.9l10.9-26.3c.4-1,1.3-1.3,2-1.4s1.7.2,2.2,1.2l11.2,26.9c.4,1-.2,2.1-.7,2.4-.8.5-2.4.6-2.9-.6l-2.9-6.8h-.2ZM206.4,415.1l-4.9-11.4-4.8,11.5h9.7Z"/>
          <path class="st1" d="M298.9,411.7c0,4.9,2.3,8.4,5.3,10.1,7.4,4.1,12.6-2,14.5.5,2.7,3.6-7.4,6.8-14.9,4-8.7-3.2-11.5-13.3-8.2-21.2,3.6-8.6,14.2-11.5,22.5-7,1.2.6,1.1,2.4.6,3-2,2.6-7.3-3.4-14.4.6-3,1.7-5.4,5.2-5.4,10h0Z"/>
          <path class="st1" d="M372.8,409.4c1.8,0,2.9.7,2.8,2.3-.1,1.2-1.3,1.9-3,1.9h-9.8v10.7c0,1.5-.9,2.4-1.7,2.7-.7.2-2.7,0-2.7-1.3v-28.9l16.4-.4c1.4,0,2.3.5,2.7,1.5.2.7-.1,2.5-1.5,2.5l-13.2.3v8.8h10Z"/>
          <path class="st1" d="M479.9,411.7c0,4.7,2.2,8.3,5.1,10,7.5,4.2,12.5-1.8,14.5.5,3.1,3.5-7.1,7-14.9,4.1-8.6-3.3-11.3-13.4-8.1-21,3.6-8.5,13.4-11.4,21.8-7.5,1.3.6,2,1.7,1.6,2.9-1.1,3.9-7.1-3.2-14.9,1.2-3,1.7-5.2,5.2-5.2,9.9h.1Z"/>
          <path class="st1" d="M277.9,423.8c0,2-.7,3-1.7,3.2-1.5.2-2.6-.7-2.6-2.7v-25.2c0-1.5.7-2.6,1.9-2.7,1.4-.2,2.4.8,2.4,2.8v24.7h0Z"/>
          <g>
            <path class="st1" d="M150.5,286.3l-24.5,33.1c-3.7,5-11.6,4.5-15.2-.5l-23.9-33v69.9c-.2,5.3-4.1,8.8-8.8,9.3-4.8.5-10.1-3-10.1-8.7v-100.8c0-4.3,4.5-7,7.4-7.6,4-.9,7.8.7,10.4,4.2l32.9,45.5,34.3-47.1c2.1-2.9,6.4-3.5,9.7-2.4,2.5.8,6.5,3.3,6.6,7.4v101c0,5.2-4.8,8.5-9.2,8.5s-9.2-3.3-9.2-8.5l-.4-70.4h0Z"/>
            <path class="st1" d="M579.8,310.4l-.5,47.1c0,5.2-5.7,8.1-10,7.6-5.2-.5-8.5-4.8-8.5-10.3v-44.2l-33.6-46.3c-3.1-4.3-3.3-9.5.7-13.1,3.6-3.2,10-3.4,13.3,1.1l29.1,39.4,29.4-40c3.4-3.3,8.1-3.8,12-1.5,2.8,1.6,5.8,7.9,3.1,11.7l-34.9,48.3h0v.2Z"/>
            <path class="st1" d="M249.8,310.5v45.3c-.2,5.4-4.1,9.1-8.9,9.3-5.1.2-9.8-3.6-9.8-9.3v-45.2l-35-48.5c-2.7-3.8-.6-8.9,2.3-11.2,3.3-2.6,9.3-3.3,12.2.6l29.8,40.3,28.3-38.7c3.1-4.2,8-5.5,12.6-3,3.8,2.1,6.4,8.3,3.2,12.7l-34.7,47.5h0v.2Z"/>
            <path class="st1" d="M377.3,365l-56.1.2c-5.2,0-9-4.3-9-9.4l.2-100.4c0-5.3,6-8.2,10.1-7.6,4.8.7,8.3,4.1,8.3,9.5v89.2h45.9c5.2,0,8.8,4.3,9,8.8.2,4.2-2.8,9.6-8.5,9.6h.1Z"/>
            <path class="st1" d="M523.8,365.1h-56.1c-4.3,0-8.4-3.8-8.4-8.3v-100.5c0-5.6,5.2-8.7,9.9-8.5s8.7,4.1,8.7,9.5v89.3h45.4c5.3,0,9.1,4.1,9.4,8.8.3,4.5-3,9.7-8.9,9.7h0Z"/>
            <path class="st1" d="M427.6,356.3c0,6.1-5.3,9-9.9,8.9-4.7-.2-8.8-3.9-8.8-9.4v-98.5c0-5.6,3.9-9.3,8.8-9.5,4.6-.2,9.9,2.9,9.9,8.5v100h0Z"/>
          </g>
        </g>
      </g>
    </g>
  </g>
</svg>