<?xml version="1.0" encoding="UTF-8"?>
<svg id="Ebene_2" xmlns="http://www.w3.org/2000/svg" version="1.1" viewBox="0 0 682.7 682.7">
  <!-- Generator: Adobe Illustrator 30.3.0, SVG Export Plug-In . SVG Version: 2.1.3 Build 182)  -->
  <defs>
    <style>
      .st0 {
        fill: none;
      }

      .st1 {
        fill: #9b9fa9;
      }
    </style>
  </defs>
  <g id="Ebene_1-2">
    <g>
      <rect class="st0" width="682.7" height="682.7"/>
      <g id="kbHVRv.tif">
        <g>
          <path class="st1" d="M540.1,254.9v141.7c0,10.7-8.7,18.7-19.4,18.8h-15.6c0,.1-48.2,63.2-48.2,63.2v-63.2H161.6c-9.3-.2-18.2-7.1-18.2-17.2l-.2-145.4c0-8.2,7.7-16.9,16.5-16.9l360.1-.3c11.3,0,20.1,7.3,20.1,19.2h.2ZM282.3,324c0-29.2-23.7-52.8-52.9-52.8s-52.9,23.6-52.9,52.8,23.7,52.8,52.9,52.8,52.9-23.6,52.9-52.8h0ZM319.1,333l31,41.2,31.2-41.6v43.2h22.1v-103.9l-53.3,65.5-53.1-65.2v103.6h21.9l.2-42.9h0ZM476,375.8h30.5l-46.9-53.1,46.1-50.5h-90.1v20.9h42.4c0,.1-29,29.6-29,29.6l47,53.1h0Z"/>
          <ellipse class="st1" cx="229.4" cy="324" rx="31.6" ry="31.5"/>
        </g>
      </g>
    </g>
  </g>
</svg>