<?xml version="1.0" encoding="UTF-8"?>
<svg id="Ebene_2" xmlns="http://www.w3.org/2000/svg" xmlns:xlink="http://www.w3.org/1999/xlink" version="1.1" viewBox="0 0 682.7 682.7">
  <!-- Generator: Adobe Illustrator 30.3.0, SVG Export Plug-In . SVG Version: 2.1.3 Build 182)  -->
  <defs>
    <style>
      .st0 {
        fill: none;
      }

      .st1 {
        fill: #9b9fa9;
      }

      .st2 {
        clip-path: url(#clippath);
      }
    </style>
    <clipPath id="clippath">
      <rect class="st0" width="682.7" height="682.7"/>
    </clipPath>
  </defs>
  <g id="Ebene_1-2">
    <g class="st2">
      <g id="QYBCoO">
        <g>
          <path class="st1" d="M635.7,369.8c0,1.4-.9,2-1.9,2h-7.9v-38.6c0-2.6-1-6-3.3-7.2-4.8-2.4-10.5,0-13.6,4v37.5c0,2.3-1.4,4.1-3.7,4.1h-5.9c0,.1,0-44,0-44,0-2.1-.6-4.1-1.3-5.9,2.2-2,5.2-3.5,7-2.4.6.4,1.2,1.2,1.8,2.8,5.8-4.9,13.5-6.8,20.9-4.4,2.4.8,4,2.6,5.4,4.7,5.4-4.6,12-6.5,18.8-5.3,9.2,1.6,10.2,10.8,10.3,19.8l.2,33.7c-3.2,1.2-6,1.1-9.1,1-.4-1-.7-2-.7-3.2v-32.4c0-5.6-1-10.5-6.2-11-4.2-.4-8.1,1.5-10.7,4.9v39.7h0v.2Z"/>
          <path class="st1" d="M440,373.1c-5.3-.3-9.6-1.8-13.4-5.3-6.5-7.1-7.5-20.7-6-30.2,2.1-13.7,9.8-21.7,23.9-20.6,7.5.6,13.8,5.1,16.2,12.6,3.2,9.9,3.2,21-.5,30.7-3.3,8.5-11,13.4-20.1,12.9h-.1ZM450.9,331.5c-1.3-4.3-4.6-6.8-8.4-7.1-4.2-.3-7.6,2.1-9.4,6-3.5,7.6-3.5,21.6-.2,29.2,1.8,4,5.2,6.5,9.5,6.1,11.5-1,11.9-22.8,8.4-34.1h.1Z"/>
          <path class="st1" d="M237.7,359.2c-3.4,9.8-11.9,14.6-21.7,13.8-8.1-.7-14.4-5.3-16.7-13.5-2.6-8.9-2.6-18.8-.2-27.6,2.8-10.1,11.3-15.7,21.4-15.1,8.1.5,14.8,4.8,17.4,12.8,3,9.4,3.1,20-.2,29.6h0ZM229.9,345.4c0-9.3-1.4-20.7-10.7-21-9.4-.3-11.6,11.4-11.6,21s2.1,20.6,11.6,20.3c8.7-.3,10.6-11.4,10.7-20.3h0Z"/>
          <path class="st1" d="M590.8,358.8c-3.3,10-12.1,15.4-22.2,14.1-6-.7-11.9-3.4-14.8-9.5-4.6-9.8-4.6-22.2-1.3-32.6,2.9-9.3,10.9-14.2,20.1-14s16,5,18.5,13.7,2.8,19.1-.3,28.3ZM576.8,364.1c7.4-5.5,7.1-23.2,4.3-32.5-1.3-4.3-4.7-7.1-8.7-7.2-9.2-.4-11.7,10.6-11.7,20s1.1,18.2,7.6,20.6c2.9,1.1,6,1,8.5-.9h0Z"/>
          <path class="st1" d="M275.6,369.8c-6.1-5.1-6.3-16-2.1-22.1,4.5-6.6,14.4-9,22.6-7.9v-10c-.2-6.3-8.9-4.4-15.6-1.8-1.6.6-3,1.3-4.6,1.5-.8-1.9-1.9-4-1.8-6,0-1.3,1.9-2.3,2.9-2.9,6-3.2,12.8-4.2,19.5-3.3,7,1,9.1,7.8,9,14.9l-.2,30.1c0,2,.9,3.6,2.9,4,.1,1.2.5,3.1-.3,4.1-1.4,1.9-4,2.4-6.2,2.4s-4.3-2.2-6-3.8c-5.1,5.1-15.4,5-20.3.9h.2ZM295.3,361.8c.9-.9.9-2.5.9-3.5v-12c-2.9-.4-5.6,0-8.3.7-4.9,1.3-7.6,5.2-7.3,10.3.1,2.7.7,5.9,3.5,7,3.6,1.4,8.3.2,11.2-2.6h0Z"/>
          <path class="st1" d="M381.8,358c0,3.6.4,6.5,1.2,9.7-1.4,1.8-4.6,3.4-6.4,2.6-.8-.3-1.6-1.3-2.2-3-5.9,5-13.5,6.9-20.9,4.6-9-2.9-9.5-12.7-9.1-22l.8-18.8c.2-3.8,0-7.6-1.7-11.2l5-3c4.7-2.8,6.9,6.3,6.6,13.6l-1,23.7c-.1,3,.6,7.1,3.2,8.7,4.6,2.9,10.9,1.4,14.8-2.4l.2-38.4c0-1.6.8-3.5,2.3-3.8,2.6-.6,5-.4,7.4-.4l-.2,39.9h0v.2Z"/>
          <path class="st1" d="M267.1,325.6l-8.9.3v45.2c-3.3.8-6.3.9-9.6.5v-45.6c-2.4,0-4.2-.2-6.8-1,0-1.2-.2-3.7,1.1-4.9,1.4-1.3,3.8-1.1,5.6-1.8.3-5.1.2-10.1,1.6-14.8,2.4-7.5,8.8-12.1,16.7-12.3,3.1,0,7-.3,9.4,2,1.6,1.6,0,5.4-1.5,6.7-3.8-.9-7.4-1.5-11,0-2.9,1.3-4.8,4.3-5,7.4l-.5,11h12.2l-.5,4.6c-.1,1.4-1.3,2.6-3,2.7h.2Z"/>
          <path class="st1" d="M194.5,360c-2,12-16.1,15.3-27.4,11.6-1.7-.5-3.9-1.5-4.5-3.2-.7-1.9.4-4.3,1.5-5.8.8-.5,2.3.2,3.1.6,6.7,2.9,15.2,2.9,17-2.8.7-2.4.3-5.4-2-7.4-4.8-4.2-10.2-7.5-14.7-12.2-5.4-5.5-5.9-14.6,0-19.8,6.9-6.1,21.8-5,25.3,0,1.1,1.6-.3,4.4-1.2,5.6l-4.8-.8c-6.1-2.5-12.5-.9-13.2,3.6-.4,2.3.5,4.4,2.4,5.9l12.2,9.4c5,3.8,7.4,9.1,6.4,15.4h-.1Z"/>
          <path class="st1" d="M417.6,367.5c.1,5.2-10.4,6.8-16.1,4.7-5.2-2-7.1-9.7-7.1-15.9v-30.2c-2-.3-4.9.2-6.3-1.1-1.6-1.6,0-4.3,1.9-4.9l5.2-1.7.6-9.9c.2-2.9,4.3-4.6,8.3-4.7l-.2,14.5,14.2.2c0,2.4,0,5.4-1.6,6.7-3.9,1.3-8.1.5-12.5.7l-.2,26.9c0,3.1.3,6.1,1.3,9,1.7,5,7,3.6,12.4,1.3v4.4h.1Z"/>
          <path class="st1" d="M338.4,363.2c.2,1.9.8,4.8-.4,6.5-2,2.8-6.1,3-9.3,3.3-5.2.5-9.6-2-11.5-6.8-1.3-3.3-1.8-6.8-1.8-10.4v-29.8c-2.2-.2-5.2.4-6.4-1.2-1.3-1.8.3-4.2,2-4.8l5.3-1.7.8-10.4c.9-3.1,4.9-4.2,8-4.2v14.5c-.1,0,14.1,0,14.1,0-.2,2.2,0,5.4-1.7,6.9-4.1,1.2-8.4.4-12.6.7v26.4c-.2,6.6,1.4,14.4,6.5,12.9l6.9-2h.1Z"/>
          <path class="st1" d="M524.8,356.5c3,9.3,13.1,10.2,22,6.4,1.8,3.8-.3,7.7-4.2,8.9-5.6,1.8-11.8,1.7-17.5-.4-12.5-4.6-13.3-23.7-10.7-36.4.9-4.3,3-8.4,6-11.7,6.4-7.2,20.2-8.8,27.8-2.4.2,2.2-.4,4.3-1.4,6.1-2.3-.1-4.1-1.1-6.1-1.6-6.9-2-13.5,1.2-15.7,8.1-2.4,7.4-2.5,15.6,0,23h0Z"/>
          <path class="st1" d="M478.8,368.1c0,4-4.4,4-9.7,3.6l.3-38.6c0-4-.2-7.5-1.5-11.3l4.1-2.3c1.8-1,3.7.2,4.8,3,5.2-5.3,16.4-7.1,17.8-3,.8,2.2-.2,5.1-1.4,6.9-.6.8-2.4.3-3.2.2-4.2-.7-8.2.2-11.2,3.4v38.1h-.1.1Z"/>
          <path class="st1" d="M505.5,370.5c-2,2.8-7.3,3-9.4.6s-2.1-7.3,0-9.9,7.5-2.8,9.7-.3c2,2.4,1.7,7-.2,9.6h-.1Z"/>
          <g>
            <path class="st1" d="M87.4,355.8l-37.2,1.5c-4.4.2-7.7-2.4-8.8-6.6l-1.6-10.7c-.6-3.8-1-7.9-3.3-11-2.6-3.5-7.3-3.8-11.6-2.9-1.6-8.5-2.1-17.1,3.2-24.4,3.1-2.9,7.3-4.2,11.9-4.7,25.3-2.8,50.4-4.7,75.8-5.8,14.1-.6,18.8,13.7,17.8,26.8-3.3.6-6.9,1.7-8.5,4.8-4.8,9.3,2.3,28-9.5,30-9.2,1.6-18.2,2.5-28,2.9h-.2Z"/>
            <path class="st1" d="M39.7,372.3c-6.8-2.2-14-6.3-16.3-12.9-2.4-6.8-2.7-13.8-2.9-21,0-2.4.1-5.1,2.3-6.5,3.1-1.9,8.2-2.6,10.7.3,2.2,2.5,2.2,6.4,2.8,9.6l1.9,11c1.5,5.1,5.7,8.9,11.3,8.7l38.3-1.5c9.5-.4,18.6-1.3,27.9-2.8,6-1,10.2-5.2,11.2-11.2l.7-12c.2-3,0-6.2,1.6-8.9,1.4-2.4,4.2-3,7-3s6.6,1.3,7.4,4.4c1.8,6.9,1.4,14.1.3,21.1-2.5,11-8.2,17.3-19.1,20.6l3.6,19.2c-1.1.5-2.2.7-3.6.8l-7.3-19.5-70.7,4.1-6.2,18.8-4.3-.2,3.7-19.1h-.3Z"/>
          </g>
        </g>
      </g>
    </g>
  </g>
</svg>