<?xml version="1.0" encoding="UTF-8"?>
<svg id="Ebene_2" xmlns="http://www.w3.org/2000/svg" version="1.1" viewBox="0 0 682.7 682.7">
  <!-- Generator: Adobe Illustrator 30.3.0, SVG Export Plug-In . SVG Version: 2.1.3 Build 182)  -->
  <defs>
    <style>
      .st0 {
        fill: none;
      }

      .st1 {
        fill: #9b9fa9;
      }
    </style>
  </defs>
  <g id="Ebene_1-2">
    <g>
      <rect class="st0" width="682.7" height="682.7"/>
      <g>
        <path class="st1" d="M385.8,267.1c-6.9-.1-13.2,4.4-17.6,9.3v55.5h-29.2c3.3-6.4,4.9-13.2,4.8-20.3-.2-11.1-4.6-21.6-12.6-29.5,9.3-12,11-28.1,4.4-42.1h26.3c.7,2.7,1.2,5.3,1.5,8.1,6.9-4.6,15.6-8.1,23.8-8.5h1.9c0-.1,2.7-.1,2.7-.1h1.7c4.7.4,9.3,1.6,13.5,3.7,13.1,6.3,20.4,19.5,20.8,34v54.8h-29.9v-52.9c-.5-6.8-5.4-11.8-12.2-12h0Z"/>
        <path class="st1" d="M274.6,341.6l-21.1,21.6c-12.9-13.2-20.1-30.7-20.6-49.1v-17.1h-19.6v-26.2h19.6v-30.7h29.8v30.7h25.6v26.2h-25.6v16.2c.3,10.6,4.4,20.7,11.9,28.4h0Z"/>
        <path class="st1" d="M313.9,323c-5.2,5.4-13.3,6.1-19.3,1.7-3.7-2.8-6.2-7.1-6.2-11.8v-15.9s15,0,15,0c4.1,0,7.9,1.8,10.6,4.7,5.6,6,5.6,15.4-.1,21.4h0Z"/>
        <path class="st1" d="M301.9,270.6h-13.5c0,0,0-13.3,0-13.3,0-3.8,1.7-7.3,4.5-9.8,4.9-4.2,12.1-4.1,16.8.4,4.6,4.3,5.5,11.4,2.2,16.8-2.2,3.4-5.8,5.9-10,6Z"/>
        <path class="st1" d="M349.6,395.1l5.6-.2c.4,2.9,3.8,3.7,6.5,2.9,1.6-.5,2.7-2,2.7-3.7v-3.3c-1.4,1.5-3.1,2-5.1,2.1-4.2.3-8-2.1-9.4-6.1-1-2.7-1-5.7-.2-8.5,1.5-5.1,6.5-7.6,11.7-6.3,1.4.3,2.4,1.1,3.3,2.1v-2.1h5.3v22c0,4.3-3.1,7.8-7.2,8.6-2.1.5-4.2.4-6.3,0-3.7-.8-6.4-3.7-6.9-7.5h0ZM364.2,384.3c.2-1.4.2-2.8,0-4.1-.5-2.2-2.3-3.6-4.4-3.6s-4,1.2-4.6,3.3c-.5,1.6-.5,3.5,0,5.1.7,1.9,2.4,3,4.3,3,2.2,0,4.2-1.4,4.6-3.7Z"/>
        <path class="st1" d="M325.3,392.7c-5.1,1-9.7-1.6-11.1-6.5-1.5-5.1,0-11.3,4.9-13.6,3-1.4,7.5-1.3,9.8,1.2v-12h5.6v30.6h-5.3s0-2,0-2c-1.1,1.2-2.4,1.9-3.9,2.2h0ZM324.4,388c2.3,0,4.1-1.7,4.4-3.9.1-1.1.2-2.4,0-3.5-.4-2.4-2.2-3.9-4.6-3.9-2,0-3.7,1.1-4.4,3-.6,1.6-.6,3.3-.1,5,.6,2.2,2.5,3.5,4.8,3.4h0Z"/>
        <path class="st1" d="M320.3,431.6v11.6h-5.6v-30.3h5.3s0,2,0,2c2.1-2.8,6.9-3.1,10.1-1.6,2.4,1.1,4.1,3.1,4.9,5.6,1.6,5.1.3,11.4-4.8,13.8-3,1.5-7.4,1.4-9.9-1.2h0ZM325,428.8c2.1,0,3.8-1.1,4.5-3.1.6-1.6.6-3.5,0-5.2-.7-2-2.5-3.1-4.5-3.1-2.2,0-4,1.4-4.4,3.6-.3,1.3-.3,2.8,0,4.1.4,2.2,2.2,3.6,4.5,3.6h0Z"/>
        <path class="st1" d="M403.3,428.8c1.9.6,4.7.2,5.2-2l5.7.3c-.3,2-1.5,3.6-3.1,4.8-2.2,1.5-4.8,2-7.4,1.7-4.1-.4-7.5-3.1-8.5-7.1-1.5-6,.8-12.3,7-13.7,5.3-1.2,10.5,1,11.9,6.5.5,1.9.4,3.7.4,5.7h-13.7c0,1.7.9,3.4,2.6,3.9h0ZM408.7,421.1c0-1.5-.5-2.7-1.6-3.5-1.5-.8-3.4-.9-4.8.1-1.1.8-1.6,2.1-1.7,3.4h8Z"/>
        <path class="st1" d="M430.8,426.8l5.7.3c-.4,2.1-1.5,3.6-3.1,4.8-2.2,1.6-4.9,2.1-7.7,1.8-4-.4-7.3-3.1-8.3-7-.6-2.4-.6-4.9,0-7.4,1.6-5.3,7-7.7,12.3-6.5,3.3.8,5.7,3.2,6.5,6.5.4,1.8.4,3.6.3,5.6h-13.7c0,1.4.5,2.7,1.7,3.5,2,1.2,5.5,1,6.2-1.6h0ZM431,421.1c0-1.6-.6-2.8-1.7-3.6-1.4-.7-3.1-.8-4.5,0-1.2.7-1.7,2-1.9,3.5h8,0Z"/>
        <path class="st1" d="M369.5,423.1c0,5.9-4.8,10.8-10.8,10.8s-10.8-4.8-10.8-10.8,4.8-10.8,10.8-10.8,10.8,4.8,10.8,10.8ZM358.9,428.8c1.9,0,3.5-1.1,4.2-2.8s.7-3.9,0-5.6c-.8-1.9-2.5-2.9-4.4-2.9-2.1,0-3.9,1.3-4.5,3.4-.4,1.5-.5,3.1,0,4.6.6,2.1,2.5,3.4,4.8,3.3h0Z"/>
        <path class="st1" d="M401,387.4c-.2-2.8,1.2-5,3.8-5.9,1.4-.5,2.9-.7,4.3-.8l3.5-.2c0-.7,0-1.5-.2-2.2-.3-1.2-1.2-1.7-2.4-1.7-1.6,0-2.8.9-2.9,2.7l-5.6-.2c0-1.5.5-2.7,1.3-3.9,1.3-1.7,3.1-2.9,5.2-3.3,4.1-.7,8.5.6,9.7,4.8.2.8.4,1.7.4,2.6v13.2h-5.4v-1.6c-2.1,2.1-5.2,2.5-8,1.6-2.3-.7-3.6-2.7-3.7-5.1h0ZM412.3,386.6c.3-.7.3-1.6.3-2.3l-4,.3c-.8,0-1.6.7-1.7,1.2-.3.8-.2,1.6.4,2.1,1.1.9,4.2.7,5.1-1.4h0Z"/>
        <path class="st1" d="M381.9,417.9c-1.8.1-3.3,1.5-3.3,3.4v12h-5.7v-20.4h5.3v2c2-2.8,6.5-3,9.4-1.4,2.4,1.2,3.5,3.6,3.8,6.2v13.6h-5.6v-12.1c-.2-2.1-1.6-3.5-3.9-3.4Z"/>
        <path class="st1" d="M469.3,428.5c-.7,4.9-7.4,6.2-12.1,4.5-2.6-.9-4.2-3.2-4.4-6l5.6-.3c0,1.2.6,2,1.6,2.4.9.2,1.9.2,2.8-.1.7-.3,1-.9,1-1.6s-.5-1.4-1.2-1.6l-3.6-1c-1.5-.4-3.1-.9-4.3-1.9s-1.7-2.7-1.7-4.2c0-2.6,1.5-4.6,4-5.5,2.2-.8,4.7-.9,7-.3,2.9.7,4.9,3.2,5.1,6.2l-5.6.3c0-.8-.3-1.6-.8-2-1-.8-3.3-.7-3.9.4-.3.6-.3,1.5.3,1.9.8.5,1.8.8,2.7,1,2.8.7,7.1,2,7.4,4.9,0,1,.1,2,0,3h0Z"/>
        <path class="st1" d="M398.2,387.6v5.1c-3.1.4-6.6.5-8.8-1.8-1-1-1.6-2.5-1.6-4v-9.7h-3.6v-5h3.7v-6.7h5.7v6.7s4.6,0,4.6,0v5s-4.7,0-4.7,0v8c0,1.2.9,2.3,2,2.5.8.2,1.6,0,2.7,0h0Z"/>
        <rect class="st1" x="422.4" y="361.8" width="5.6" height="30.6"/>
        <path class="st1" d="M445.9,433.3h-5.6s0-20.4,0-20.4h5.4s0,2.2,0,2.2c1.4-1.9,3.2-2.4,5.5-2.5v5.6c-2.9,0-5,1.4-5.3,4.3v10.8h0Z"/>
        <rect class="st1" x="339.5" y="372.1" width="5.7" height="20.4"/>
        <rect class="st1" x="339.1" y="412.9" width="5.7" height="20.4"/>
        <rect class="st1" x="374.9" y="372.1" width="5.6" height="20.4"/>
        <circle class="st1" cx="341.9" cy="406.2" r="3.4"/>
        <circle class="st1" cx="377.8" cy="365.4" r="3.4"/>
        <circle class="st1" cx="342.4" cy="365.4" r="3.4"/>
      </g>
    </g>
  </g>
</svg>