<?xml version="1.0" encoding="UTF-8"?>
<svg id="Ebene_2" xmlns="http://www.w3.org/2000/svg" version="1.1" viewBox="0 0 682.7 682.7">
  <!-- Generator: Adobe Illustrator 30.3.0, SVG Export Plug-In . SVG Version: 2.1.3 Build 182)  -->
  <defs>
    <style>
      .st0 {
        fill: none;
      }

      .st1 {
        fill: #9b9fa9;
      }
    </style>
  </defs>
  <g id="Ebene_1-2">
    <g id="Tee_Gschwender">
      <rect class="st0" width="682.7" height="682.7"/>
      <g id="eoCwo4">
        <g>
          <path class="st1" d="M640.5,296.2v90.2H38.1v-90.2h602.4ZM171.2,301.9v78.9h463.6v-78.9H171.2ZM73.1,369.2v-49.8h14.6l.8-6.4h-37.6v6.4h14.6v49.9h7.6ZM102.4,364.4c-4-.4-7.4-2.8-8.7-6.4-.9-2.4-.9-5-.9-7.5h24.9c0-4.1,0-7.9-1-11.8-1.7-7.1-7.8-11.7-15.1-11.6-3.4,0-6.6.8-9.3,2.9-4.3,3.3-6.8,8.1-7.5,13.5-.6,5.2-.4,10.3,1.3,15.2,2.3,6.6,7.8,10.9,14.8,11.4,5.8.4,11.5-1.2,15.8-5.1l-2.8-4.4c-3.1,2.9-7.1,4.2-11.5,3.8h0ZM139.3,363.8c-4-1.3-6.6-4.7-6.9-8.7l-.3-4.7h24.9c0-4-.1-7.9-1-11.7-1.7-7.2-7.7-11.8-15-11.7-10.7,0-16.8,8.9-17.1,19.5,0,4.7.2,9.1,2.1,13.4,2.6,6,7.8,9.8,14.4,10.2,5.8.4,11.4-1.2,15.7-5.1l-2.8-4.4c-3.8,3.4-9,4.9-14.1,3.2h.1Z"/>
          <polygon class="st1" points="387 328.3 395.1 328.2 383.6 369.7 376.2 369.7 367.7 337.8 365.5 346.1 359.3 369.7 351.9 369.7 340.7 328.6 348.5 327.3 355.8 360.1 357.4 352.6 364 328.2 371.9 328.2 378.1 352.4 380 360.4 381.7 352.1 387 328.3"/>
          <path class="st1" d="M217.1,345.8h-10.4l-1.3-6.6h19.6v26.5c-12.1,6.8-28.5,6.7-36.5-5.6-5.1-7.6-5.6-19.2-3.8-28.1,2.3-11.2,10.9-19.9,22.6-19.9s11.8,1.5,16.4,5.7l-3.9,5c-7.2-5.9-18.8-6.2-23.4,1.6-2.6,4.4-3.6,9.2-3.7,14.4-.2,7.9.2,18.9,7.3,22.7,5.3,2.9,11.6,3,17,.2v-16h0Z"/>
          <path class="st1" d="M494.2,370.1c-6.5-.1-11.8-3.6-14.2-9.6-5-12.6-1.1-31.3,13-32.9,4.5-.5,8.5,1,11.4,4.5v-4.6c-.1,0-.1-18.4-.1-18.4l7.7,1.3v50.5c0,3,.5,5.7,1,8.5h-7.3l-.7-3.7c-2.8,3-6.5,4.4-10.8,4.4h0ZM491,362.5c4.7,2.5,10.3.9,13.3-3.4v-21.7c-3.1-3.4-7.9-4.8-12-3-6.5,2.9-6.3,14.6-5.2,21.7.4,2.4,1.7,5,4,6.2h0v.2Z"/>
          <path class="st1" d="M328.1,369.4v-28.8c0-1.6-.4-3.8-1.3-4.9-3.4-4.1-11.7-.6-15.4,4.2v29.4h-7.7v-49.6c0-3.1-.3-5.8-.8-8.9l7.7-1.6c.7,3.6.9,7.1.9,10.8v13.1c5.2-4.8,11.2-7.5,17.9-4.9,3.8,1.4,6.1,4.8,6.1,9v32.2h-7.4Z"/>
          <path class="st1" d="M427.5,360.4l3,4.6c-4.8,4.3-11.2,6-17.7,5-6-.9-10.6-4.8-12.9-10.4-1.9-4.6-2.2-9.5-1.9-14.5.7-10.1,7-18.3,17.4-18.3s13.3,4.7,15,11.9c.9,3.8,1,7.6,1,11.8h-24.9l.2,4.9c.2,4.1,3.3,7.3,7.3,8.4,4.8,1.1,9.5,0,13.5-3.5h0ZM423.3,344.7c0-3.2-.5-5.3-1.6-7.6-1.5-2.8-4.1-4.5-7.2-4.3-6,.3-8.1,6-8.1,12h16.9Z"/>
          <path class="st1" d="M590.7,360.4l3,4.6c-5.2,4.5-11.8,6.1-18.3,4.9-5.1-1-9.2-4.1-11.5-8.7-2.2-4.3-2.7-8.9-2.7-13.7s.9-9.2,3.5-13.1c3.3-4.9,8.5-7.8,14.5-7.4,6.9,0,12.6,4.7,14.3,11.4,1,4,1.1,7.9,1,12.1h-24.8l.3,4.8c.2,4,3.1,7.3,7,8.4,4.9,1.5,9.8.2,13.8-3.4h0ZM586.5,344.8c0-2.9-.4-5.4-1.6-7.7-1.5-2.9-4.4-4.5-7.5-4.2-5.7.5-7.7,6.2-7.7,11.9h16.8Z"/>
          <path class="st1" d="M462.8,369.4v-30.7c0-3.2-2.7-5.2-5.7-4.9-3.8.4-7,2.5-9.8,5.2v30.3h-7.5v-32.7c0-2.7-.7-5-1.5-7.7l7.2-2c.9,2,1.3,3.9,1.5,6.1l4.9-3.7c2.9-2.2,6.7-2.6,10.2-2,4.6.9,8.3,4.5,8.3,9.5v32.4c.1,0-7.5,0-7.5,0h0v.2Z"/>
          <path class="st1" d="M545.9,340c0-2-.5-4.1-1.9-5.2-3.6-2.8-10.2.6-13.5,4.2v30.4h-7.6v-32.3c0-2.8-.6-5.2-1.6-8l7.2-2c1,1.9,1.3,3.9,1.5,6.1l3.1-2.5c3.4-2.7,7.7-3.9,11.9-3.2,4.8.9,8.3,4.6,8.3,9.6v32.2h-7.5v-29.3h0Z"/>
          <path class="st1" d="M254.7,369c-7.6,3.2-16.3,1.3-23.5-2.8l2.8-5.5c6.1,3.6,17,6.8,20,.5,1.1-2.2,1-5-.8-6.9-1.2-1.3-3.1-2-4.8-2.3l-7.5-1.6c-4.8-1-7.7-5.2-8-10-.4-6.2,3.4-11.5,9.6-13.1s12.5-.4,18.3,2.6l-2.7,5.5c-5.2-3-13.4-4.7-16.1-.2-1.2,2-1.4,4.4,0,6.2.9,1.2,2.7,2,4.1,2.3l8.4,2.1c2.8.7,5.5,2.6,6.9,5.2,3.6,6.7.4,15-6.6,17.9h0Z"/>
          <path class="st1" d="M286.7,364.2c2.8-.5,4.8-2,6.9-4.1l3.8,4.7c-3.9,4.3-9.1,5.9-14.8,5.4-10.8-1-15-10.2-15-20.4s.2-6.3,1.1-9.4c1.5-5.1,4.6-9.4,9.4-11.8,6.1-3.1,13.3-2,18.3,2.7l-4.1,5.3c-1.8-1.5-3.4-2.7-5.4-3.1-4.5-.9-8.4,1.7-9.6,6.1-1.6,5.5-1.9,14.4.3,19.6,1.5,3.7,5.1,5.8,9.2,5.1h0Z"/>
          <path class="st1" d="M603,369.4v-32c0-3-.6-5.7-1.5-8.5l7.4-1.9c.9,2.3,1.3,4.5,1.4,6.8,3.5-4.7,7.7-7.9,13.7-6.4l-2.6,7.7c-2.6-.8-5.2-.3-7.3,1.4-2,1.6-3.3,4-3.3,6.8v26.1h-7.8Z"/>
          <path class="st1" d="M110,344.9h-17.2c0-5.9,1.9-11.6,7.7-12.1,3.4-.4,6.4,1.2,7.9,4.4,1.1,2.3,1.5,4.8,1.6,7.8h0Z"/>
          <path class="st1" d="M149.4,344.9h-17.1c0-6.4,2.3-12.2,8.7-12.2s5.8,1.9,7.2,4.9c.9,2.2,1.3,4.5,1.3,7.3h0Z"/>
        </g>
      </g>
    </g>
  </g>
</svg>