<?xml version="1.0" encoding="utf-8"?>
<svg version="1.1" xmlns:xlink="http://www.w3.org/1999/xlink" width="18px" height="17px" xmlns="http://www.w3.org/2000/svg">
  <g transform="matrix(1 0 0 1 -384 -260 )">
    <path d="M 0.22265625 5.523841961852862  L 4 5.523841961852862  L 4 17  L 0.22265625 17  L 0.22265625 5.523841961852862  Z M 3.73828125 0.5616485013623979  C 4.12890625 0.9360808356039958  4.328125000000001 1.4089464123524045  4.3359375 1.98024523160763  C 4.34375 2.5438237965485904  4.146484375 3.0147593097184364  3.744140625 3.393051771117166  C 3.341796875 3.7713442325158932  2.8125 3.96049046321526  2.15625 3.96049046321526  L 2.1328125 3.96049046321526  C 1.4921875000000002 3.96049046321526  0.9765625000000001 3.7713442325158932  0.5859375 3.393051771117166  C 0.19531249999999997 3.0147593097184364  0 2.5438237965485904  0 1.98024523160763  C 0 1.4089464123524045  0.20117187499999997 0.9360808356039958  0.603515625 0.5616485013623979  C 1.005859375 0.18721616712079803  1.5312500000000002 0  2.1796875 0  C 2.828125 0  3.34765625 0.18721616712079803  3.73828125 0.5616485013623979  Z M 16.78125 6.571866485013624  C 17.59375 7.448115349682107  18 8.731607629427792  18 10.422343324250683  L 18 17  L 14.14453125 17  L 14.14453125 10.862397820163487  C 14.14453125 10.051771117166211  13.986328125 9.416780199818346  13.669921875 8.95742506811989  C 13.353515625 8.498069936421434  12.859375000000002 8.268392370572208  12.1875 8.268392370572208  C 11.6953125 8.268392370572208  11.283203125 8.401566757493187  10.951171875 8.667915531335149  C 10.619140625000002 8.934264305177113  10.37109375 9.264305177111718  10.20703125 9.658038147138965  C 10.12109375 9.889645776566757  10.078125 10.202316076294277  10.078125 10.596049046321527  L 10.078125 17  L 6.22265625 17  C 6.23828125 13.919618528610354  6.24609375 11.42211625794732  6.24609375 9.507493188010901  C 6.24609375 7.592870118074477  6.242187500000001 6.450272479564032  6.234375 6.079700272479563  L 6.22265625 5.523841961852862  L 10.078125 5.523841961852862  L 10.078125 7.191416893732969  L 10.0546875 7.191416893732969  C 10.2109375 6.944368755676657  10.37109375 6.728201634877384  10.53515625 6.542915531335151  C 10.69921875 6.357629427792915  10.919921875000002 6.156902815622161  11.197265625 5.940735694822887  C 11.474609375 5.724568574023613  11.814453125000002 5.556653042688464  12.216796875 5.436989100817439  C 12.619140625000002 5.317325158946413  13.06640625 5.257493188010899  13.55859375 5.257493188010899  C 14.89453125 5.257493188010899  15.96875 5.69561762034514  16.78125 6.571866485013624  Z " fill-rule="nonzero" fill="#060608" stroke="none" transform="matrix(1 0 0 1 384 260 )" />
  </g>
</svg>