<?xml version="1.0" encoding="utf-8"?>
<svg version="1.1" xmlns:xlink="http://www.w3.org/1999/xlink" width="31px" height="30px" xmlns="http://www.w3.org/2000/svg">
  <g transform="matrix(1 0 0 1 -422 -80 )">
    <path d="M 30.76590703971118 15  C 30.76590703971118 6.7181859205776195  24.04772111913354 0  15.76590703971115 0  C 7.484092960288763 0  0.765907039711152 6.718185920577618  0.765907039711152 15  C 0.765907039711152 23.28181407942238  7.484092960288763 30  15.76590703971115 30  C 24.04772111913354 30  30.76590703971118 23.28181407942238  30.76590703971118 15  Z M 15.765907039711209 26.60875451263538  L 15.76590703971115 26.612138989169672  C 9.359092960288791 26.612138989169672  4.1537680505414585 21.403429602888085  4.1537680505414585 14.999999999999996  C 4.1537680505414585 9.178700361010828  8.455437725631725 4.345667870036098  14 3.5130866425992764  L 14 17.172833935018048  L 9.467396209386237 12.627481949458481  L 9.467396209386237 17.88695848375451  L 15.715139891696737 24.134702166064983  L 22.01703519855593 17.886958483754512  L 22.01703519855593 12.576714801444044  L 17 17.19990974729242  L 17 3.496164259927798  C 23.01207129963899 4.271209386281589  27.381430505415153 9.131317689530684  27.381430505415153 14.996615523465701  C 27.381430505415153 21.403429602888085  22.17272111913357 26.60875451263538  15.769291516245488 26.60875451263538  L 15.765907039711209 26.60875451263538  Z " fill-rule="nonzero" fill="#44a4dc" stroke="none" transform="matrix(1 0 0 1 422 80 )" />
  </g>
</svg>