<?xml version="1.0" encoding="utf-8"?>
<svg version="1.1" xmlns:xlink="http://www.w3.org/1999/xlink" width="16px" height="18px" xmlns="http://www.w3.org/2000/svg">
  <g transform="matrix(1 0 0 1 -7 -6 )">
    <path d="M 5.974999999999999 7.625  C 5.974999999999999 5.363124999999999  6.916874999999998 3.3246875  8.4259375 1.8740624999999997  C 4.744374999999999 2.16625  1.8499999999999996 5.24625  1.8499999999999996 9  C 1.8499999999999996 12.9496875  5.0503124999999995 16.15  9 16.15  C 10.144687499999998 16.15  11.2240625 15.881875  12.183124999999999 15.404062499999998  C 8.628749999999998 14.599687499999998  5.974999999999999 11.423437499999999  5.974999999999999 7.625  Z M 9 17.799999999999997  C 4.139375 17.799999999999997  0.19999999999999987 13.860624999999999  0.19999999999999987 9  C 0.19999999999999987 4.139375  4.139375 0.19999999999999987  9 0.19999999999999987  C 9.666874999999997 0.19999999999999987  10.319999999999999 0.27562500000000006  10.949062499999998 0.4165624999999998  C 11.289375 0.4921875  11.543749999999998 0.7774999999999999  11.584999999999999 1.1212499999999999  C 11.626249999999999 1.4649999999999999  11.447499999999998 1.8018749999999997  11.1346875 1.9599999999999995  C 9.051562500000001 2.998125  7.625 5.146562499999999  7.625 7.625  C 7.625 11.1175  10.457499999999998 13.95  13.949999999999998 13.95  C 14.121874999999998 13.95  14.290312499999999 13.943124999999998  14.45875 13.929374999999997  C 14.805937499999999 13.901874999999999  15.132499999999999 14.094375  15.276874999999999 14.4140625  C 15.42125 14.73375  15.345625 15.104999999999999  15.0946875 15.345625  C 13.5134375 16.864999999999995  11.365 17.799999999999997  9 17.799999999999997  Z " fill-rule="nonzero" fill="#4b4b4b" stroke="none" transform="matrix(1 0 0 1 7 6 )" />
  </g>
</svg>