<?xml version="1.0" encoding="utf-8"?>
<svg version="1.1" xmlns:xlink="http://www.w3.org/1999/xlink" width="11px" height="24px" xmlns="http://www.w3.org/2000/svg">
  <g transform="matrix(1 0 0 1 -362 -84 )">
    <path d="M 5.2807987364620885 0.6130415162454881  L 5.28079873646206 0.6096570397111911  C 8.665275270758087 0.6096570397111911  10.384589350180477 2.640342960288807  10.384589350180477 6.156814079422382  L 10.384589350180477 6.860785198555956  L 7.105031588447616 6.860785198555956  L 7.105031588447616 5.950361010830322  C 7.105031588447616 4.3630415162454845  6.478903429602866 3.763989169675088  5.362026173285187 3.763989169675088  C 4.2451489169675085 3.763989169675088  3.61902075812273 4.3630415162454845  3.61902075812273 5.950361010830322  C 3.61902075812273 7.53768050541516  4.3229918772563 8.762861010830322  6.5872066787003405 10.7427797833935  C 9.47754963898916 13.294675090252703  10.41504963898916 15.118907942238263  10.41504963898916 17.643727436823102  C 10.41504963898916 21.183889891696747  8.644968411552327 23.190884476534297  5.233416064981924 23.190884476534297  C 1.8218637184115494 23.190884476534297  0.05178249097471621 21.16019855595668  0.05178249097471621 17.643727436823106  L 0.05178249097471621 16.289936823104693  L 3.3313402527075766 16.289936823104693  L 3.3313402527075766 17.87725631768953  C 3.3313402527075766 19.464575812274365  4.035311371841118 20.012861010830324  5.128497292418757 20.012861010830324  C 6.221683212996368 20.012861010830324  6.9256543321299375 19.440884476534297  6.9256543321299375 17.87725631768953  C 6.9256543321299375 16.313628158844764  6.221683212996368 15.064756317689529  3.957468411552327 13.084837545126355  C 1.0671254512635073 10.532942238267148  0.12962545126353575 8.708709386281589  0.12962545126353575 6.183889891696751  C 0.18039259927795115 2.6166516245487372  1.899706678700369 0.6130415162454881  5.284183212996396 0.6130415162454881  L 5.2807987364620885 0.6130415162454881  Z " fill-rule="nonzero" fill="#44a4dc" stroke="none" transform="matrix(1 0 0 1 362 84 )" />
  </g>
</svg>