<?xml version="1.0" encoding="utf-8"?>
<svg version="1.1" xmlns:xlink="http://www.w3.org/1999/xlink" width="11px" height="24px" xmlns="http://www.w3.org/2000/svg">
  <g transform="matrix(1 0 0 1 -379 -84 )">
    <path d="M 7.57569945848374 14.695848375451266  L 10.855257220216572 14.695848375451263  L 10.855257220216572 17.636958483754512  C 10.855257220216572 21.177120938628157  9.085175992779739 23.1841155234657  5.673623646209364 23.1841155234657  C 2.2620712996389614 23.1841155234657  0.4919900722021282 21.15342960288808  0.4919900722021282 17.63695848375451  L 0.4919900722021282 6.153429602888085  C 0.4919900722021282 2.6132671480144394  2.2620712996389614 0.606272563176895  5.673623646209364 0.606272563176895  C 9.085175992779739 0.606272563176895  10.855257220216572 2.636958483754512  10.855257220216572 6.153429602888085  L 10.855257220216572 8.28903429602888  L 7.57569945848374 8.28903429602888  L 7.57569945848374 5.91990072202166  C 7.57569945848374 4.3325812274368225  6.87172833935017 3.7335288808664258  5.778542418772531 3.7335288808664258  C 4.6853564981949205 3.7335288808664258  3.9813853790613507 4.3325812274368225  4 5.91990072202166  L 4 17.84679602888087  C 3.9813853790613507 19.434115523465707  4.6853564981949205 19.982400722021662  5.778542418772531 19.982400722021662  C 6.87172833935017 19.982400722021662  7.57569945848374 19.410424187725635  7.57569945848374 17.84679602888087  L 7.57569945848374 14.695848375451266  Z " fill-rule="nonzero" fill="#1e1e1e" stroke="none" transform="matrix(1 0 0 1 379 84 )" />
  </g>
</svg>