<?xml version="1.0" encoding="utf-8"?>
<svg version="1.1" xmlns:xlink="http://www.w3.org/1999/xlink" width="12px" height="21px" xmlns="http://www.w3.org/2000/svg">
  <g transform="matrix(1 0 0 1 -1446 -6780 )">
    <path d="M 11.436351259360109 9.340282505105515  C 11.775043200502695 9.661334240980258  11.940933130858252 10.08066712049013  11.940933130858252 10.5  C 11.940933130858252 10.919332879509872  11.775043200502699 11.33866575901974  11.436351259360109 11.659717494894487  L 3.0105252133843017 19.646698434309055  C 2.3331413310991262 20.28880190605854  1.2410326229250674 20.28880190605854  0.5636487406398916 19.646698434309055  C -0.11373514164528423 19.004594962559565  -0.11373514164528423 17.96936691626957  0.5636487406398916 17.32726344452008  L 7.766036550243496 10.5  L 0.5636487406398906 3.6727365554799185  C -0.10682306121380375 3.030633083730429  -0.10682306121380375 1.9954050374404355  0.5636487406398906 1.3533015656909462  C 1.234120542493585 0.7111980939414567  2.333141331099125 0.7177501701837985  3.010525213384301 1.3533015656909462  L 11.436351259360109 9.340282505105515  Z " fill-rule="nonzero" fill="#44a4dc" stroke="none" transform="matrix(1 0 0 1 1446 6780 )" />
  </g>
</svg>