<?xml version="1.0" encoding="UTF-8"?>
<svg id="Layer_1" data-name="Layer 1" xmlns="http://www.w3.org/2000/svg" viewBox="0 0 143.64 191.51">
  <defs>
    <style>
      .cls-1 {
        fill: #060608;
        stroke-width: 0px;
      }
    </style>
  </defs>
  <path class="cls-1" d="m125.68,65.83v101.74c0,3.29-2.69,5.98-5.98,5.98H23.94c-3.29,0-5.98-2.69-5.98-5.98v-101.74h107.73Zm0-17.95H17.95v-23.94c0-3.29,2.69-5.98,5.98-5.98h95.76c3.29,0,5.98,2.69,5.98,5.98v23.94Zm17.95,0v-23.94c0-13.2-10.74-23.94-23.94-23.94H23.94C10.74,0,0,10.74,0,23.94v143.64c0,13.2,10.74,23.94,23.94,23.94h95.76c13.2,0,23.94-10.74,23.94-23.94V47.88ZM29.92,86.78c0,4.97,4,8.98,8.98,8.98s8.98-4,8.98-8.98-4-8.98-8.98-8.98-8.98,4-8.98,8.98Zm8.98,23.94c-4.97,0-8.98,4-8.98,8.98s4,8.98,8.98,8.98,8.98-4,8.98-8.98-4-8.98-8.98-8.98Zm-8.98,41.89c0,4.97,4,8.98,8.98,8.98h32.92c4.97,0,8.98-4,8.98-8.98s-4-8.98-8.98-8.98h-32.92c-4.97,0-8.98,4-8.98,8.98Zm41.89-74.81c-4.97,0-8.98,4-8.98,8.98s4,8.98,8.98,8.98,8.98-4,8.98-8.98-4-8.98-8.98-8.98Zm-8.98,41.89c0,4.97,4,8.98,8.98,8.98s8.98-4,8.98-8.98-4-8.98-8.98-8.98-8.98,4-8.98,8.98Zm41.89-41.89c-4.97,0-8.98,4-8.98,8.98s4,8.98,8.98,8.98,8.98-4,8.98-8.98-4-8.98-8.98-8.98Zm-8.98,41.89c0,4.97,4,8.98,8.98,8.98s8.98-4,8.98-8.98-4-8.98-8.98-8.98-8.98,4-8.98,8.98Zm8.98,23.94c-4.97,0-8.98,4-8.98,8.98s4,8.98,8.98,8.98,8.98-4,8.98-8.98-4-8.98-8.98-8.98Z"/>
</svg>