<?xml version="1.0" encoding="UTF-8"?>
<svg id="Layer_1" data-name="Layer 1" xmlns="http://www.w3.org/2000/svg" viewBox="0 0 132.57 152.8">
  <defs>
    <style>
      .cls-1 {
        stroke-width: 0px;
      }

      .cls-1, .cls-2 {
        fill: #060608;
      }

      .cls-2 {
        stroke: #060608;
        stroke-miterlimit: 10;
        stroke-width: 3px;
      }
    </style>
  </defs>
  <path class="cls-2" d="m34.35,82.48c2.7-9.1,11.13-15.73,21.11-15.73h6.29c1.74,0,3.15,1.41,3.15,3.15s-1.41,3.15-3.15,3.15h-6.29c-6.45,0-12,3.88-14.43,9.44h12.85c1.31,0,2.36,1.05,2.36,2.36s-1.05,2.36-2.36,2.36h-14.08c-.05.52-.08,1.04-.08,1.57s.03,1.05.08,1.57h14.08c1.31,0,2.36,1.05,2.36,2.36s-1.05,2.36-2.36,2.36h-12.85c2.43,5.56,7.98,9.44,14.43,9.44h6.29c1.74,0,3.15,1.41,3.15,3.15s-1.41,3.15-3.15,3.15h-6.29c-9.98,0-18.41-6.64-21.11-15.73h-3.27c-1.31,0-2.36-1.05-2.36-2.36s1.05-2.36,2.36-2.36h2.42c-.07-1.03-.07-2.11,0-3.15h-2.42c-1.31,0-2.36-1.05-2.36-2.36s1.05-2.36,2.36-2.36h3.27Z"/>
  <path class="cls-2" d="m107.13,75.83c0-3.06-2.46-5.52-5.52-5.52s-5.52,2.46-5.52,5.52v56.62l-14.49-14.49c-2.16-2.16-5.66-2.16-7.8,0-2.14,2.16-2.16,5.66,0,7.8l23.9,23.93c2.16,2.16,5.66,2.16,7.8,0l23.95-23.93c2.16-2.16,2.16-5.66,0-7.8-2.16-2.14-5.66-2.16-7.8,0l-14.49,14.49v-56.62h-.02Z"/>
  <path class="cls-1" d="m96.68,37.39L64.26,4.95c-3.18-3.18-7.49-4.95-11.99-4.95H16.94C7.6,0,0,7.6,0,16.94v101.62c0,9.34,7.6,16.94,16.94,16.94h47.59v-12.7H16.94c-2.33,0-4.23-1.91-4.23-4.23V16.94c0-2.33,1.91-4.23,4.23-4.23h29.64v23.29c0,10.53,8.52,19.05,19.05,19.05h23.29v7.46h12.7v-13.12c0-4.5-1.77-8.81-4.95-11.99Zm-31.04,4.95c-3.52,0-6.35-2.83-6.35-6.35v-18.02l24.37,24.37h-18.02Z"/>
  <path class="cls-1" d="m31.76,42.34h-4.23c-3.52,0-6.35,2.83-6.35,6.35s2.83,6.35,6.35,6.35h4.23c3.52,0,6.35-2.83,6.35-6.35s-2.83-6.35-6.35-6.35Z"/>
  <path class="cls-1" d="m31.76,21.17h-4.23c-3.52,0-6.35,2.83-6.35,6.35s2.83,6.35,6.35,6.35h4.23c3.52,0,6.35-2.83,6.35-6.35s-2.83-6.35-6.35-6.35Z"/>
</svg>