<?xml version="1.0" encoding="utf-8"?>
<svg version="1.1" xmlns:xlink="http://www.w3.org/1999/xlink" width="20px" height="24px" xmlns="http://www.w3.org/2000/svg">
  <g transform="matrix(1 0 0 1 -479 -5661 )">
    <path d="M 18.971893491124266 16.848192771084335  L 18.974704142011834 16.845421686746988  C 18.946597633136097 16.93409638554217  18.48846153846154 18.505301204819276  17.364201183431955 20.120843373493976  C 16.391715976331362 21.51469879518072  15.38831360946746 22.919638554216867  13.80029585798817 22.944578313253015  C 12.240384615384619 22.972289156626506  11.740088757396453 22.027349397590363  9.958136094674561 22.027349397590363  C 8.17618343195267 22.027349397590363  7.619674556213023 22.919638554216867  6.144082840236692 22.972289156626506  C 4.617899408284029 23.033253012048192  3.445857988165686 21.448192771084337  2.4705621301775205 20.06265060240964  C 0.47781065088757957 17.222289156626506  -1.0596153846153786 12.009879518072289  1.0005917159763367 8.518313253012048  C 2.012426035502964 6.769759036144578  3.8337278106508936 5.661325301204818  5.818047337278113 5.630843373493975  C 7.313313609467462 5.603132530120481  8.732692307692314 6.628433734939758  9.640532544378704 6.628433734939758  C 10.548372781065094 6.628433734939758  12.293786982248527 5.386987951807228  14.106656804733733 5.572650602409638  C 14.865532544378704 5.60590361445783  16.990384615384624 5.885783132530119  18.359171597633143 7.842168674698795  C 18.252366863905333 7.9142168674698805  15.815532544378705 9.330240963855422  15.843639053254446 12.214939759036143  C 15.880177514792905 15.695421686746988  18.940976331360957 16.837108433734937  18.971893491124266 16.848192771084335  Z M 9.474704142011838 5.323253012048193  C 10.77322485207101 5.400843373493977  12.108284023668645 4.65265060240964  12.920562130177517 3.7049397590361446  C 13.73846153846154 2.721204819277108  14.275295857988167 1.3689156626506018  14.13476331360947 0.02493975903614395  C 12.9655325443787 0.06927710843373415  11.543343195266274 0.7897590361445774  10.697337278106513 1.767951807228915  C 9.949704142011836 2.62144578313253  9.289201183431956 3.9959036144578315  9.474704142011838 5.323253012048193  Z " fill-rule="nonzero" fill="#ffffff" stroke="none" transform="matrix(1 0 0 1 479 5661 )" />
  </g>
</svg>