<?xml version="1.0" encoding="utf-8"?>
<svg version="1.1" xmlns:xlink="http://www.w3.org/1999/xlink" width="11px" height="24px" xmlns="http://www.w3.org/2000/svg">
  <g transform="matrix(1 0 0 1 -223 -24 )">
    <path d="M 5.730482851985553 10.637861010830324  L 5.727098375451257 10.634476534296029  L 10.597360108303244 10.634476534296029  L 10.597360108303244 17.640342960288805  C 10.597360108303244 21.180505415162454  8.827278880866421 23.187499999999996  5.415726534296023 23.187499999999996  C 2.004174187725626 23.187499999999996  0.23409296028880283 21.156814079422382  0.23409296028880283 17.640342960288805  L 0.23409296028880283 6.156814079422382  C 0.23409296028880283 2.6166516245487363  2.004174187725626 0.6096570397111911  5.415726534296023 0.6096570397111911  C 8.827278880866421 0.6096570397111911  10.597360108303244 2.640342960288807  10.597360108303244 6.156814079422382  L 10.597360108303244 8.292418772563176  L 7.3178023465703905 8.292418772563176  L 7.3178023465703905 5.923285198555956  C 7.3178023465703905 4.335965703971118  6.613831227436817 3.736913357400721  5.520645306859199 3.736913357400721  C 4.4274593862815825 3.736913357400721  3.723488267148009 4.335965703971118  3.723488267148009 5.923285198555956  L 3.723488267148009 17.85018050541516  C 3.723488267148009 19.4375  4.427459386281583 19.985785198555956  5.520645306859199 19.985785198555956  C 6.613831227436817 19.985785198555956  7.3178023465703905 19.41380866425993  7.3178023465703905 17.85018050541516  L 7.3178023465703905 13.788808664259928  L 5.730482851985553 13.788808664259928  L 5.730482851985553 10.637861010830324  Z " fill-rule="nonzero" fill="#ffffff" stroke="none" transform="matrix(1 0 0 1 223 24 )" />
  </g>
</svg>