<?xml version="1.0" encoding="utf-8"?>
<svg version="1.1" xmlns:xlink="http://www.w3.org/1999/xlink" width="11px" height="24px" xmlns="http://www.w3.org/2000/svg">
  <g transform="matrix(1 0 0 1 -320 -24 )">
    <path d="M 0 17.63695848375451  L 0 6.153429602888085  C 0.047044223826702584 2.6132671480144394  1.894968411552341 0.606272563176895  5.306520758122744 0.606272563176895  C 8.718073104693161 0.606272563176895  10.565997292418785 2.636958483754512  10.565997292418785 6.153429602888085  L 10.565997292418785 17.636958483754512  C 10.565997292418785 21.177120938628157  8.718073104693161 23.1841155234657  5.306520758122744 23.1841155234657  C 1.894968411552341 23.1841155234657  0.047044223826702584 21.15342960288808  0 17.63695848375451  Z M 3.536439530685911 5.943592057761732  L 3.536439530685911 17.87048736462094  C 3.536439530685911 19.457806859205775  4.240410649819481 20.05685920577617  5.3335965703971056 20.05685920577617  C 6.426782490974731 20.05685920577617  7.1307536101083 19.457806859205775  7 17.87048736462094  L 7 5.943592057761732  C 7.1307536101083 4.356272563176894  6.426782490974731 3.7572202166064974  5.3335965703971056 3.7572202166064974  C 4.240410649819481 3.7572202166064974  3.536439530685911 4.356272563176894  3.536439530685911 5.943592057761732  Z " fill-rule="nonzero" fill="#ffffff" stroke="none" transform="matrix(1 0 0 1 320 24 )" />
  </g>
</svg>