<?xml version="1.0" encoding="utf-8"?>
<svg version="1.1" xmlns:xlink="http://www.w3.org/1999/xlink" width="11px" height="24px" xmlns="http://www.w3.org/2000/svg">
  <g transform="matrix(1 0 0 1 -338 -24 )">
    <path d="M 7.616764440433215 14.695848375451266  L 10.896322202166061 14.695848375451263  L 10.896322202166061 17.636958483754512  C 10.896322202166061 21.177120938628157  9.126240974729228 23.1841155234657  5.714688628158839 23.1841155234657  C 2.3031362815884506 23.1841155234657  0.5330550541516175 21.15342960288808  0.5330550541516175 17.63695848375451  L 0.5330550541516175 6.153429602888085  C 0.5330550541516175 2.6132671480144394  2.3031362815884506 0.606272563176895  5.714688628158839 0.606272563176895  C 9.126240974729228 0.606272563176895  10.896322202166061 2.636958483754512  10.896322202166061 6.153429602888085  L 10.896322202166061 8.28903429602888  L 7.616764440433215 8.28903429602888  L 7.616764440433215 5.91990072202166  C 7.616764440433215 4.3325812274368225  6.912793321299645 3.7335288808664258  5.81960740072202 3.7335288808664258  C 4.726421480144396 3.7335288808664258  4.022450361010826 4.3325812274368225  4 5.91990072202166  L 4 17.84679602888087  C 4.022450361010826 19.434115523465707  4.726421480144396 19.982400722021662  5.81960740072202 19.982400722021662  C 6.912793321299645 19.982400722021662  7.616764440433215 19.410424187725635  7.616764440433215 17.84679602888087  L 7.616764440433215 14.695848375451266  Z " fill-rule="nonzero" fill="#ffffff" stroke="none" transform="matrix(1 0 0 1 338 24 )" />
  </g>
</svg>