<?xml version="1.0" encoding="utf-8"?>
<svg version="1.1" xmlns:xlink="http://www.w3.org/1999/xlink" width="12px" height="24px" xmlns="http://www.w3.org/2000/svg">
  <g transform="matrix(1 0 0 1 -391 -24 )">
    <path d="M 0.6794900722021282 17.63695848375451  L 0.6794900722021282 6.153429602888085  C 0.6794900722021282 2.6132671480144394  2.5274142599277525 0.606272563176895  5.938966606498184 0.606272563176895  C 9.350518953068587 0.606272563176895  11.198443140794183 2.636958483754512  11 6.153429602888085  L 11 17.636958483754512  C 11.198443140794183 21.177120938628157  9.35051895306853 23.1841155234657  5.938966606498184 23.1841155234657  C 2.5274142599278093 23.1841155234657  0.6794900722021282 21.15342960288808  0.6794900722021282 17.63695848375451  Z M 4.168885379061322 5.943592057761732  L 4.168885379061351 17.87048736462094  C 4.168885379061351 19.457806859205775  4.8728564981949205 20.05685920577617  5.966042418772503 20.05685920577617  C 7.059228339350142 20.05685920577617  7.763199458483683 19.457806859205775  7.763199458483683 17.87048736462094  L 7.763199458483683 5.943592057761732  C 7.763199458483683 4.356272563176894  7.059228339350085 3.7572202166064974  5.966042418772503 3.7572202166064974  C 4.8728564981949205 3.7572202166064974  4.168885379061322 4.356272563176894  4.168885379061322 5.943592057761732  Z " fill-rule="nonzero" fill="#ffffff" stroke="none" transform="matrix(1 0 0 1 391 24 )" />
  </g>
</svg>