<?xml version="1.0" encoding="utf-8"?>
<svg version="1.1" xmlns:xlink="http://www.w3.org/1999/xlink" width="18px" height="18px" xmlns="http://www.w3.org/2000/svg">
  <g transform="matrix(1 0 0 1 -6 -6 )">
    <path d="M 9 17.4  C 8.563593749999999 17.4  8.2125 17.048906249999995  8.2125 16.612499999999997  L 8.2125 14.774999999999999  C 8.2125 14.33859375  8.563593749999999 13.987499999999999  9 13.987499999999999  C 9.436406250000001 13.987499999999999  9.7875 14.33859375  9.7875 14.774999999999999  L 9.7875 16.612499999999997  C 9.7875 17.048906249999995  9.436406250000001 17.4  9 17.4  Z M 9 4.012499999999999  C 8.563593749999999 4.012499999999999  8.2125 3.6614062499999998  8.2125 3.225  L 8.2125 1.3874999999999997  C 8.2125 0.95109375  8.563593749999999 0.5999999999999999  9 0.5999999999999999  C 9.436406250000001 0.5999999999999999  9.7875 0.95109375  9.7875 1.3874999999999997  L 9.7875 3.225  C 9.7875 3.6614062499999998  9.436406250000001 4.012499999999999  9 4.012499999999999  Z M 3.0609374999999996 4.17328125  C 2.752499999999999 3.8648437499999995  2.752499999999999 3.36609375  3.0609374999999996 3.0609374999999996  C 3.369375 2.752499999999999  3.868124999999999 2.752499999999999  4.17328125 3.0609374999999996  L 5.47265625 4.360312499999999  C 5.781093749999999 4.668749999999999  5.781093749999999 5.1674999999999995  5.47265625 5.47265625  C 5.16421875 5.7778125  4.6654687500000005 5.781093749999999  4.360312499999999 5.47265625  L 3.0609374999999996 4.17328125  Z M 12.52734375 13.639687499999999  C 12.21890625 13.331249999999999  12.21890625 12.8325  12.52734375 12.52734375  C 12.835781249999998 12.21890625  13.334531249999998 12.21890625  13.639687499999999 12.52734375  L 14.9390625 13.826718749999998  C 15.247499999999999 14.135156249999998  15.247499999999999 14.633906249999999  14.9390625 14.9390625  C 14.630625 15.244218749999998  14.131874999999999 15.247499999999999  13.826718749999998 14.9390625  L 12.52734375 13.639687499999999  Z M 1.3874999999999997 9.7875  C 0.95109375 9.7875  0.5999999999999999 9.436406250000001  0.5999999999999999 9  C 0.5999999999999999 8.563593749999999  0.95109375 8.2125  1.3874999999999997 8.2125  L 3.225 8.2125  C 3.6614062499999998 8.2125  4.012499999999999 8.563593749999999  4.012499999999999 9  C 4.012499999999999 9.436406250000001  3.6614062499999998 9.7875  3.225 9.7875  L 1.3874999999999997 9.7875  Z M 14.774999999999999 9.7875  C 14.33859375 9.7875  13.987499999999999 9.436406250000001  13.987499999999999 9  C 13.987499999999999 8.563593749999999  14.33859375 8.2125  14.774999999999999 8.2125  L 16.612499999999997 8.2125  C 17.048906249999995 8.2125  17.4 8.563593749999999  17.4 9  C 17.4 9.436406250000001  17.048906249999995 9.7875  16.612499999999997 9.7875  L 14.774999999999999 9.7875  Z M 4.17328125 14.9390625  C 3.8648437499999995 15.247499999999999  3.36609375 15.247499999999999  3.0609374999999996 14.9390625  C 2.752499999999999 14.630625  2.752499999999999 14.131874999999999  3.0609374999999996 13.826718749999998  L 4.360312499999999 12.52734375  C 4.668749999999999 12.21890625  5.1674999999999995 12.21890625  5.47265625 12.52734375  C 5.7778125 12.835781249999998  5.781093749999999 13.334531249999998  5.47265625 13.639687499999999  L 4.17328125 14.9390625  Z M 13.639687499999999 5.47265625  C 13.331249999999999 5.781093749999999  12.8325 5.781093749999999  12.52734375 5.47265625  C 12.21890625 5.16421875  12.21890625 4.6654687500000005  12.52734375 4.360312499999999  L 13.826718749999998 3.0609374999999996  C 14.135156249999998 2.752499999999999  14.633906249999999 2.752499999999999  14.9390625 3.0609374999999996  C 15.244218749999998 3.369375  15.247499999999999 3.868124999999999  14.9390625 4.17328125  L 13.639687499999999 5.47265625  Z M 9 11.099999999999998  C 10.15828125 11.099999999999998  11.099999999999998 10.15828125  11.099999999999998 9  C 11.099999999999998 7.841718749999999  10.15828125 6.8999999999999995  9 6.8999999999999995  C 7.841718749999999 6.8999999999999995  6.8999999999999995 7.841718749999999  6.8999999999999995 9  C 6.8999999999999995 10.15828125  7.841718749999999 11.099999999999998  9 11.099999999999998  Z M 9 12.674999999999999  C 6.968906250000001 12.674999999999999  5.325 11.03109375  5.325 9  C 5.325 6.968906250000001  6.968906250000001 5.325  9 5.325  C 11.03109375 5.325  12.674999999999999 6.968906250000001  12.674999999999999 9  C 12.674999999999999 11.03109375  11.03109375 12.674999999999999  9 12.674999999999999  Z " fill-rule="nonzero" fill="#ffffff" stroke="none" transform="matrix(1 0 0 1 6 6 )" />
  </g>
</svg>