<?xml version="1.0" encoding="utf-8"?>
<svg version="1.1" xmlns:xlink="http://www.w3.org/1999/xlink" width="10px" height="19px" xmlns="http://www.w3.org/2000/svg">
  <g transform="matrix(1 0 0 1 -238 -258 )">
    <path d="M 7.361111111111112 0  C 8.49537037037037 0  9.375 0.04567307692307676  10 0.13701923076923028  L 10 3.151442307692307  L 8.18287037037037 3.151442307692307  C 7.519290123456791 3.151442307692307  7.0717592592592595 3.288461538461539  6.840277777777778 3.5625  C 6.608796296296297 3.836538461538461  6.493055555555555 4.247596153846153  6.493055555555555 4.795673076923077  L 6.493055555555555 6.953725961538461  L 9.88425925925926 6.953725961538461  L 9.43287037037037 10.333533653846153  L 6.493055555555555 10.333533653846153  L 6.493055555555555 19  L 2.951388888888889 19  L 2.951388888888889 10.333533653846153  L 0 10.333533653846153  L 0 6.953725961538461  L 2.951388888888889 6.953725961538461  L 2.951388888888889 4.46454326923077  C 2.951388888888889 3.0486778846153837  3.3526234567901234 1.9506209935897427  4.155092592592593 1.1703725961538465  C 4.957561728395063 0.39012419871795023  6.026234567901235 0  7.361111111111112 0  Z " fill-rule="nonzero" fill="#04101c" stroke="none" transform="matrix(1 0 0 1 238 258 )" />
  </g>
</svg>