<?xml version="1.0" encoding="utf-8"?>
<svg version="1.1" xmlns:xlink="http://www.w3.org/1999/xlink" width="21px" height="15px" xmlns="http://www.w3.org/2000/svg">
  <g transform="matrix(1 0 0 1 -333 -222 )">
    <path d="M 8.334448160535118 4.273809523809524  L 8.334448160535118 10.261904761904763  L 14 7.2857142857142865  L 8.334448160535118 4.273809523809524  Z M 3.1605351170568565 0.21428571428571352  C 5.119286510590859 0.07142857142857117  7.565774804905239 0  10.5 0  C 11.811036789297658 0  13.077201783723522 0.017857142857142794  14.298494983277592 0.05357142857142838  C 15.519788182831665 0.08928571428571397  16.41527313266444 0.12698412698412598  16.984949832775918 0.16666666666666607  L 17.839464882943144 0.21428571428571352  C 17.847268673355632 0.21428571428571352  17.913600891861762 0.22023809523809446  18.038461538461537 0.23214285714285632  C 18.163322185061315 0.24404761904761985  18.25306577480491 0.2559523809523817  18.307692307692307 0.26785714285714357  C 18.36231884057971 0.27976190476190543  18.454013377926422 0.2976190476190482  18.58277591973244 0.32142857142857195  C 18.711538461538463 0.3452380952380957  18.82274247491639 0.3769841269841251  18.91638795986622 0.41666666666666685  C 19.010033444816052 0.4563492063492053  19.11928651059086 0.5079365079365056  19.244147157190636 0.5714285714285711  C 19.369007803790417 0.6349206349206332  19.48996655518395 0.712301587301587  19.607023411371237 0.803571428571429  C 19.72408026755853 0.8948412698412678  19.83723522853958 0.9999999999999998  19.94648829431438 1.1190476190476184  C 19.993311036789297 1.1666666666666659  20.053790412486066 1.2400793650793633  20.127926421404684 1.3392857142857144  C 20.202062430323302 1.4384920634920624  20.31521739130435 1.6706349206349203  20.467391304347824 2.035714285714285  C 20.619565217391308 2.4007936507936485  20.722965440356745 2.8015873015873005  20.777591973244146 3.238095238095238  C 20.84002229654404 3.7460317460317456  20.888795986622075 4.287698412698412  20.92391304347826 4.863095238095237  C 20.95903010033445 5.438492063492063  20.980490523968786 5.8888888888888875  20.98829431438127 6.2142857142857135  L 20.98829431438127 6.69047619047619  L 20.98829431438127 8.30952380952381  C 20.996098104793756 9.460317460317459  20.925863991081382 10.61111111111111  20.777591973244146 11.761904761904761  C 20.722965440356745 12.1984126984127  20.625418060200673 12.593253968253967  20.48494983277592 12.946428571428573  C 20.344481605351174 13.299603174603176  20.219620958751396 13.543650793650794  20.110367892976587 13.678571428571429  L 19.94648829431438 13.880952380952381  C 19.83723522853958 14  19.72408026755853 14.10515873015873  19.607023411371237 14.196428571428571  C 19.48996655518395 14.287698412698413  19.369007803790417 14.363095238095239  19.244147157190636 14.422619047619047  C 19.11928651059086 14.482142857142858  19.010033444816052 14.531746031746033  18.91638795986622 14.571428571428571  C 18.82274247491639 14.611111111111109  18.711538461538463 14.642857142857142  18.58277591973244 14.666666666666666  C 18.454013377926422 14.69047619047619  18.360367892976587 14.708333333333332  18.301839464882942 14.720238095238095  C 18.243311036789297 14.732142857142856  18.15356744704571 14.744047619047619  18.032608695652176 14.75595238095238  C 17.91164994425864 14.767857142857144  17.847268673355632 14.773809523809526  17.839464882943144 14.773809523809526  C 15.88071348940914 14.924603174603176  13.434225195094761 15  10.5 15  C 8.884615384615385 14.984126984126986  7.4818840579710155 14.958333333333334  6.29180602006689 14.922619047619047  C 5.101727982162765 14.886904761904763  4.3193979933110365 14.857142857142858  3.9448160535117056 14.833333333333334  L 3.37123745819398 14.785714285714286  L 2.9498327759197323 14.738095238095237  C 2.668896321070234 14.6984126984127  2.456243032329989 14.658730158730156  2.3118729096989967 14.619047619047619  C 2.167502787068005 14.57936507936508  1.96850613154961 14.496031746031747  1.7148829431438126 14.36904761904762  C 1.4612597547380155 14.24206349206349  1.2408026755852841 14.07936507936508  1.0535117056856187 13.880952380952381  C 1.0066889632107023 13.833333333333334  0.9462095875139354 13.759920634920634  0.8720735785953178 13.660714285714285  C 0.7979375696767002 13.561507936507939  0.6847826086956521 13.329365079365079  0.532608695652174 12.964285714285715  C 0.3804347826086957 12.599206349206348  0.2770345596432553 12.1984126984127  0.22240802675585286 11.761904761904761  C 0.15997770345596435 11.253968253968253  0.11120401337792644 10.712301587301587  0.07608695652173914 10.136904761904763  C 0.04096989966555184 9.561507936507933  0.019509476031215164 9.11111111111111  0.011705685618729096 8.785714285714285  L 0.011705685618729096 8.30952380952381  L 0.011705685618729096 6.69047619047619  C 0.003901895206243031 5.539682539682539  0.07413600891861762 4.3888888888888875  0.22240802675585286 3.238095238095238  C 0.2770345596432553 2.8015873015873005  0.3745819397993311 2.4067460317460294  0.5150501672240803 2.053571428571428  C 0.6555183946488294 1.700396825396825  0.7803790412486065 1.4563492063492052  0.8896321070234114 1.3214285714285716  L 1.0535117056856187 1.1190476190476184  C 1.162764771460424 0.9999999999999998  1.2759197324414715 0.8948412698412678  1.3929765886287626 0.803571428571429  C 1.5100334448160533 0.712301587301587  1.6309921962095875 0.6349206349206332  1.7558528428093645 0.5714285714285711  C 1.8807134894091417 0.5079365079365056  1.9899665551839465 0.4563492063492053  2.0836120401337794 0.41666666666666685  C 2.177257525083612 0.3769841269841251  2.2884615384615383 0.3452380952380957  2.4172240802675584 0.32142857142857195  C 2.545986622073579 0.2976190476190482  2.6376811594202905 0.27976190476190543  2.692307692307692 0.26785714285714357  C 2.746934225195095 0.2559523809523817  2.836677814938685 0.24404761904761985  2.9615384615384617 0.23214285714285632  C 3.086399108138239 0.22023809523809446  3.152731326644371 0.21428571428571352  3.1605351170568565 0.21428571428571352  Z " fill-rule="nonzero" fill="#04101c" stroke="none" transform="matrix(1 0 0 1 333 222 )" />
  </g>
</svg>