<?xml version="1.0" encoding="UTF-8"?>
<svg id="Layer_1" data-name="Layer 1" xmlns="http://www.w3.org/2000/svg" viewBox="0 0 870.72 106.2">
  <defs>
    <style>
      .cls-1, .cls-2 {
        fill: #fff;
        stroke-width: 0px;
      }

      .cls-2 {
        fill-rule: evenodd;
      }
    </style>
  </defs>
  <g>
    <path class="cls-1" d="m5.09,93.68c-3.39-3.67-5.09-8.94-5.09-15.81v-44.58c0-6.86,1.7-12.13,5.09-15.81,3.39-3.67,8.32-5.51,14.78-5.51s11.39,1.84,14.78,5.51c3.39,3.68,5.09,8.95,5.09,15.81v7.27h-12.6v-8.12c0-5.57-2.3-8.36-6.91-8.36s-6.91,2.79-6.91,8.36v46.4c0,5.49,2.3,8.24,6.91,8.24s6.91-2.74,6.91-8.24v-16.6h-6.66v-12.11h19.26v27.74c0,6.87-1.7,12.14-5.09,15.81-3.39,3.68-8.32,5.51-14.78,5.51s-11.39-1.84-14.78-5.51Z"/>
    <path class="cls-1" d="m48.33,13.18h36.34v12.11h-23.02v22.41h18.29v12.11h-18.29v26.05h23.02v12.11h-36.34V13.18Z"/>
    <path class="cls-1" d="m102.73,25.29h-13.93v-12.11h41.19v12.11h-13.93v72.69h-13.33V25.29Z"/>
    <path class="cls-1" d="m136.4,13.18h19.02l8.48,60.69h.24l8.48-60.69h19.02v84.8h-12.6V33.77h-.24l-9.69,64.21h-11.15l-9.69-64.21h-.24v64.21h-11.63V13.18Z"/>
    <path class="cls-1" d="m213.81,61.88l-16.11-48.7h14.17l9.09,31.13h.24l9.09-31.13h12.96l-16.11,48.7v36.1h-13.33v-36.1Z"/>
    <path class="cls-1" d="m249.31,13.18h13.33v84.8h-13.33V13.18Z"/>
    <path class="cls-1" d="m272.57,13.18h16.72l12.96,50.76h.24V13.18h11.87v84.8h-13.69l-15.99-61.9h-.24v61.9h-11.87V13.18Z"/>
    <path class="cls-1" d="m320.78,13.18h13.45l8.72,65.78h.24l8.72-65.78h12.24l-12.84,84.8h-17.69l-12.84-84.8Z"/>
    <path class="cls-1" d="m374.57,93.62c-3.47-3.71-5.21-8.96-5.21-15.75v-44.58c0-6.78,1.74-12.03,5.21-15.75,3.47-3.71,8.48-5.57,15.02-5.57s11.55,1.86,15.02,5.57c3.47,3.71,5.21,8.96,5.21,15.75v44.58c0,6.79-1.74,12.04-5.21,15.75-3.47,3.72-8.48,5.57-15.02,5.57s-11.55-1.86-15.02-5.57Zm21.93-14.9v-46.28c0-5.57-2.3-8.36-6.91-8.36s-6.91,2.79-6.91,8.36v46.28c0,5.57,2.3,8.36,6.91,8.36s6.91-2.79,6.91-8.36Z"/>
    <path class="cls-1" d="m418.78,13.18h13.33v84.8h-13.33V13.18Z"/>
    <path class="cls-1" d="m446.22,93.74c-3.35-3.63-5.03-8.76-5.03-15.38v-45.55c0-6.62,1.68-11.75,5.03-15.38,3.35-3.63,8.22-5.45,14.6-5.45s11.25,1.82,14.6,5.45c3.35,3.63,5.03,8.76,5.03,15.38v8.96h-12.6v-9.81c0-5.25-2.22-7.88-6.66-7.88s-6.66,2.62-6.66,7.88v47.37c0,5.17,2.22,7.75,6.66,7.75s6.66-2.58,6.66-7.75v-12.96h12.6v11.99c0,6.62-1.68,11.75-5.03,15.38-3.35,3.63-8.22,5.45-14.6,5.45s-11.25-1.82-14.6-5.45Z"/>
    <path class="cls-1" d="m488.44,13.18h36.34v12.11h-23.02v22.41h18.29v12.11h-18.29v26.05h23.02v12.11h-36.34V13.18Z"/>
    <path class="cls-1" d="m535.32,93.68c-3.31-3.67-4.97-8.94-4.97-15.81v-4.85h12.6v5.82c0,5.49,2.3,8.24,6.91,8.24,2.26,0,3.98-.67,5.15-2,1.17-1.33,1.76-3.49,1.76-6.48,0-3.55-.81-6.68-2.42-9.39-1.62-2.71-4.6-5.96-8.96-9.75-5.49-4.85-9.33-9.23-11.51-13.14-2.18-3.92-3.27-8.34-3.27-13.27,0-6.7,1.7-11.89,5.09-15.57,3.39-3.67,8.32-5.51,14.78-5.51s11.21,1.84,14.48,5.51c3.27,3.68,4.91,8.95,4.91,15.81v3.51h-12.6v-4.36c0-2.91-.57-5.03-1.7-6.36-1.13-1.33-2.79-2-4.97-2-4.44,0-6.66,2.71-6.66,8.12,0,3.07.83,5.94,2.48,8.6,1.65,2.67,4.66,5.9,9.03,9.69,5.57,4.85,9.41,9.25,11.51,13.2,2.1,3.96,3.15,8.6,3.15,13.93,0,6.95-1.72,12.28-5.15,15.99-3.43,3.72-8.42,5.57-14.96,5.57s-11.35-1.84-14.66-5.51Z"/>
    <path class="cls-1" d="m577.72,85.14h12.84v12.84h-12.84v-12.84Z"/>
    <path class="cls-1" d="m603.95,93.74c-3.35-3.63-5.03-8.76-5.03-15.38v-45.55c0-6.62,1.67-11.75,5.03-15.38,3.35-3.63,8.22-5.45,14.6-5.45s11.25,1.82,14.6,5.45c3.35,3.63,5.03,8.76,5.03,15.38v8.96h-12.6v-9.81c0-5.25-2.22-7.88-6.66-7.88s-6.66,2.62-6.66,7.88v47.37c0,5.17,2.22,7.75,6.66,7.75s6.66-2.58,6.66-7.75v-12.96h12.6v11.99c0,6.62-1.68,11.75-5.03,15.38-3.35,3.63-8.22,5.45-14.6,5.45s-11.25-1.82-14.6-5.45Z"/>
    <path class="cls-1" d="m650.65,93.62c-3.47-3.71-5.21-8.96-5.21-15.75v-44.58c0-6.78,1.74-12.03,5.21-15.75,3.47-3.71,8.48-5.57,15.02-5.57s11.55,1.86,15.02,5.57c3.47,3.71,5.21,8.96,5.21,15.75v44.58c0,6.79-1.74,12.04-5.21,15.75-3.47,3.72-8.48,5.57-15.02,5.57s-11.55-1.86-15.02-5.57Zm21.93-14.9v-46.28c0-5.57-2.3-8.36-6.91-8.36s-6.91,2.79-6.91,8.36v46.28c0,5.57,2.3,8.36,6.91,8.36s6.91-2.79,6.91-8.36Z"/>
    <path class="cls-1" d="m694.86,13.18h19.02l8.48,60.69h.24l8.48-60.69h19.02v84.8h-12.6V33.77h-.24l-9.69,64.21h-11.15l-9.69-64.21h-.24v64.21h-11.63V13.18Z"/>
  </g>
  <path class="cls-2" d="m817.62,0c-29.3,0-53.1,23.8-53.1,53.1s23.8,53.1,53.1,53.1,53.1-23.8,53.1-53.1S846.92,0,817.62,0Zm0,94.1c-22.6,0-41-18.3-41-41,0-20.6,15.2-37.6,34.9-40.5v48.2l-16.3-16.1v18.6l22.1,22.1,22.4-22.1v-18.8l-16.4,16.3V12.6c19.9,2.8,35.3,19.9,35.3,40.6-.1,22.6-18.4,40.9-41,40.9Z"/>
</svg>